<svg width="716px" height="82px" viewBox="0 0 716 82" version="1.1" xmlns="http://www.w3.org/2000/svg" xmlns:xlink="http://www.w3.org/1999/xlink">
    <!-- Generator: Sketch 47.1 (45422) - http://www.bohemiancoding.com/sketch -->
    <desc>Created with Sketch.</desc>
    <defs>
        <path d="M390.172105,1847.23384 C391.306797,1848.3353 392.919229,1848.88602 395.009449,1848.88602 C398.413523,1848.88602 400.653012,1847.27851 401.727983,1844.06345 C402.026586,1843.05131 402.399834,1842.36663 402.847738,1842.0094 C403.295643,1841.65217 404.027209,1841.47356 405.042459,1841.47356 L423.31687,1841.47356 C423.854356,1841.47356 424.317183,1841.66706 424.705367,1842.05405 C425.093551,1842.44105 425.28764,1842.90247 425.28764,1843.43831 C425.22792,1848.61812 423.779717,1852.91969 420.942989,1856.34313 C418.10626,1859.76657 414.433499,1862.28201 409.924594,1863.88954 C405.415689,1865.49707 400.473883,1866.30082 395.09903,1866.30082 C386.08122,1866.30082 378.914856,1864.32121 373.599723,1860.36193 C368.28459,1856.40264 365.447904,1850.31496 365.08958,1842.09871 C365.02986,1840.49118 365,1837.87154 365,1834.23972 C365,1830.54836 365.02986,1827.86918 365.08958,1826.20212 C365.447904,1818.22401 368.344309,1812.19587 373.778884,1808.11751 C379.213458,1804.03915 386.320102,1802 395.09903,1802 C400.473883,1802 405.415689,1802.80375 409.924594,1804.41128 C414.433499,1806.01881 418.10626,1808.53426 420.942989,1811.9577 C423.779717,1815.38114 425.22792,1819.6827 425.28764,1824.86251 C425.28764,1825.39836 425.093551,1825.85977 424.705367,1826.24677 C424.317183,1826.63377 423.854356,1826.82726 423.31687,1826.82726 L405.042459,1826.82726 C404.08693,1826.82726 403.385223,1826.64865 402.937319,1826.29142 C402.489414,1825.93419 402.086306,1825.24952 401.727983,1824.23737 C401.071056,1822.45122 400.205121,1821.20094 399.13015,1820.48649 C398.055179,1819.77203 396.681626,1819.41481 395.009449,1819.41481 C392.919229,1819.41481 391.306797,1819.96553 390.172105,1821.06698 C389.037414,1822.16843 388.440217,1824.02897 388.380496,1826.64865 C388.320776,1828.25618 388.290916,1830.72697 388.290916,1834.0611 C388.290916,1837.39524 388.320776,1839.92557 388.380496,1841.65217 C388.440217,1844.27185 389.037414,1846.13239 390.172105,1847.23384 Z M505.820461,1803.60752 C506.298226,1804.08383 506.537105,1804.64943 506.537105,1805.30435 L506.537105,1841.83079 C506.537105,1849.98751 503.939298,1856.10495 498.743606,1860.18331 C493.547914,1864.26167 486.500989,1866.30082 477.602621,1866.30082 C468.644531,1866.30082 461.552817,1864.26167 456.327265,1860.18331 C451.101713,1856.10495 448.488976,1849.98751 448.488976,1841.83079 L448.488976,1805.30435 C448.488976,1804.64943 448.727854,1804.08383 449.205619,1803.60752 C449.683384,1803.13122 450.250721,1802.89307 450.907648,1802.89307 L468.465415,1802.89307 C469.122342,1802.89307 469.689679,1803.13122 470.167444,1803.60752 C470.645208,1804.08383 470.884087,1804.64943 470.884087,1805.30435 L470.884087,1841.47356 C470.884087,1843.73601 471.436494,1845.4477 472.541325,1846.6087 C473.646156,1847.76969 475.303378,1848.35018 477.51304,1848.35018 C479.722702,1848.35018 481.379924,1847.76969 482.484755,1846.6087 C483.589586,1845.4477 484.141993,1843.73601 484.141993,1841.47356 L484.141993,1805.30435 C484.141993,1804.64943 484.380872,1804.08383 484.858637,1803.60752 C485.336402,1803.13122 485.903739,1802.89307 486.560665,1802.89307 L504.118433,1802.89307 C504.775359,1802.89307 505.342696,1803.13122 505.820461,1803.60752 Z M579.276427,1857.14689 C577.186206,1856.34312 575.663354,1855.37564 574.707824,1854.24442 C573.812015,1855.73287 572.542972,1856.9385 570.900655,1857.86134 C569.258339,1858.78418 566.585882,1859.24559 562.883205,1859.24559 C558.463881,1859.24559 555.000139,1857.59344 552.491874,1854.28907 C549.983608,1850.98471 548.729495,1846.56407 548.729495,1841.02703 C548.729495,1835.48998 549.923889,1831.05446 552.312713,1827.72033 C554.701536,1824.3862 558.0757,1822.71915 562.435303,1822.71915 C564.585244,1822.71915 566.346976,1823.03172 567.720549,1823.65687 C569.094123,1824.28202 570.288517,1825.27927 571.303767,1826.64865 L571.303767,1825.84489 C571.303767,1825.18997 571.542646,1824.62437 572.020411,1824.14806 C572.498176,1823.67176 573.065513,1823.43361 573.722439,1823.43361 L580.172231,1823.43361 C580.829158,1823.43361 581.396495,1823.67176 581.87426,1824.14806 C582.352025,1824.62437 582.590903,1825.18997 582.590903,1825.84489 L582.590903,1843.08108 C582.590903,1844.51 582.919362,1845.61143 583.576288,1846.38543 C584.233215,1847.15942 585.21859,1847.54642 586.532443,1847.54642 C589.100429,1847.54642 590.384402,1846.08775 590.384402,1843.17039 L590.384402,1838.52644 C590.384402,1836.56168 590.354542,1835.07325 590.294822,1834.0611 C590.055939,1829.47667 589.160144,1825.83002 587.607408,1823.12103 C586.054673,1820.41205 583.516586,1818.40267 579.99307,1817.09283 C576.469555,1815.78299 571.662119,1815.12808 565.570619,1815.12808 C558.224985,1815.12808 552.715843,1816.82489 549.043026,1820.21857 C545.37021,1823.61224 543.205371,1828.22637 542.548444,1834.0611 C542.369282,1835.54956 542.279703,1837.90128 542.279703,1841.11633 C542.279703,1844.27185 542.369282,1846.71288 542.548444,1848.43948 C543.205371,1854.51237 545.519509,1859.15627 549.490929,1862.37133 C553.462348,1865.58639 559.419388,1867.19389 567.362228,1867.19389 C572.080155,1867.19389 575.558827,1866.92597 577.79835,1866.39013 C580.037872,1865.85429 582.142991,1864.84215 584.113771,1863.3537 C584.830418,1862.81786 585.382825,1862.46064 585.771009,1862.28202 C586.159193,1862.10341 586.651881,1862.0141 587.249087,1862.0141 L596.02797,1862.0141 C596.744617,1862.0141 597.341814,1862.25225 597.819579,1862.72855 C598.297344,1863.20486 598.506363,1863.80023 598.446642,1864.51469 C598.446642,1864.87192 598.237623,1865.31845 597.819579,1865.85429 C594.89327,1869.42657 590.90698,1872.3439 585.86059,1874.60635 C580.814199,1876.86879 574.64814,1878 567.362228,1878 C555.895873,1878 547.191727,1875.30594 541.249528,1869.91774 C535.307328,1864.52955 531.977955,1857.51904 531.261308,1848.88602 C531.141867,1846.62357 531.082147,1844.06347 531.082147,1841.20564 C531.082147,1838.1692 531.141867,1835.63887 531.261308,1833.61457 C531.679352,1828.67291 533.217134,1823.96947 535.874701,1819.50411 C538.532267,1815.03876 542.369258,1811.3921 547.385788,1808.56404 C552.402318,1805.73598 558.463868,1804.32197 565.570619,1804.32197 C578.111944,1804.32197 587.040039,1806.9565 592.355172,1812.22562 C597.670305,1817.49474 600.71601,1824.62432 601.492377,1833.61457 C601.611819,1835.40071 601.671538,1837.00822 601.671538,1838.43713 C601.671538,1840.1042 601.611819,1842.12846 601.492377,1844.50999 C601.313216,1847.36782 600.47714,1849.8535 598.984125,1851.9671 C597.49111,1854.0807 595.624869,1855.67332 593.385347,1856.74501 C591.145825,1857.81669 588.861546,1858.35253 586.532443,1858.35253 C583.785296,1858.35253 581.366648,1857.95065 579.276427,1857.14689 Z M569.87048,1846.83196 C570.82601,1845.76028 571.303767,1843.82532 571.303767,1841.02703 C571.303767,1838.28827 570.81108,1836.35332 569.82569,1835.22209 C568.8403,1834.09087 567.421957,1833.52526 565.570619,1833.52526 C561.808221,1833.52526 559.927051,1836.02583 559.927051,1841.02703 C559.927051,1843.76578 560.419738,1845.68585 561.405128,1846.78731 C562.390518,1847.88876 563.779001,1848.43948 565.570619,1848.43948 C567.481678,1848.43948 568.91495,1847.90365 569.87048,1846.83196 Z M677.187854,1803.60752 C677.665619,1804.08383 677.904498,1804.64943 677.904498,1805.30435 L677.904498,1819.68273 C677.904498,1820.33765 677.665619,1820.90325 677.187854,1821.37955 C676.71009,1821.85586 676.142752,1822.09401 675.485826,1822.09401 L660.615472,1822.09401 L660.615472,1862.99647 C660.615472,1863.65139 660.376593,1864.217 659.898828,1864.6933 C659.421064,1865.16961 658.853726,1865.40776 658.1968,1865.40776 L640.280711,1865.40776 C639.623784,1865.40776 639.056447,1865.16961 638.578682,1864.6933 C638.100917,1864.217 637.862039,1863.65139 637.862039,1862.99647 L637.862039,1822.09401 L622.991685,1822.09401 C622.334758,1822.09401 621.767421,1821.85586 621.289656,1821.37955 C620.811891,1820.90325 620.573012,1820.33765 620.573012,1819.68273 L620.573012,1805.30435 C620.573012,1804.64943 620.811891,1804.08383 621.289656,1803.60752 C621.767421,1803.13122 622.334758,1802.89307 622.991685,1802.89307 L675.485826,1802.89307 C676.142752,1802.89307 676.71009,1803.13122 677.187854,1803.60752 Z M742.939902,1803.60752 C743.417666,1804.08383 743.656545,1804.64943 743.656545,1805.30435 L743.656545,1862.99647 C743.656545,1863.65139 743.417666,1864.217 742.939902,1864.6933 C742.462137,1865.16961 741.8948,1865.40776 741.237873,1865.40776 L723.680106,1865.40776 C723.023179,1865.40776 722.455842,1865.16961 721.978077,1864.6933 C721.500313,1864.217 721.261434,1863.65139 721.261434,1862.99647 L721.261434,1843.70623 L706.749402,1843.70623 L706.749402,1862.99647 C706.749402,1863.65139 706.510523,1864.217 706.032758,1864.6933 C705.554993,1865.16961 704.987656,1865.40776 704.330729,1865.40776 L686.772962,1865.40776 C686.116036,1865.40776 685.548698,1865.18449 685.070934,1864.73796 C684.593169,1864.29142 684.35429,1863.71093 684.35429,1862.99647 L684.35429,1805.30435 C684.35429,1804.64943 684.593169,1804.08383 685.070934,1803.60752 C685.548698,1803.13122 686.116036,1802.89307 686.772962,1802.89307 L704.330729,1802.89307 C704.987656,1802.89307 705.554993,1803.13122 706.032758,1803.60752 C706.510523,1804.08383 706.749402,1804.64943 706.749402,1805.30435 L706.749402,1824.05875 L721.261434,1824.05875 L721.261434,1805.30435 C721.261434,1804.64943 721.500313,1804.08383 721.978077,1803.60752 C722.455842,1803.13122 723.023179,1802.89307 723.680106,1802.89307 L741.237873,1802.89307 C741.8948,1802.89307 742.462137,1803.13122 742.939902,1803.60752 Z M775.009701,1842.36663 L799.913065,1842.36663 C800.569992,1842.36663 801.137329,1842.12848 801.615094,1841.65217 C802.092859,1841.17587 802.331737,1840.61027 802.331737,1839.95535 L802.331737,1828.34548 C802.331737,1827.69056 802.092859,1827.12495 801.615094,1826.64865 C801.137329,1826.17234 800.569992,1825.9342 799.913065,1825.9342 L775.009701,1825.9342 L775.009701,1820.30787 L801.883835,1820.30787 C802.540762,1820.30787 803.108099,1820.06972 803.585864,1819.59342 C804.063628,1819.11711 804.302507,1818.55151 804.302507,1817.89659 L804.302507,1805.30435 C804.302507,1804.64943 804.063628,1804.08383 803.585864,1803.60752 C803.108099,1803.13122 802.540762,1802.89307 801.883835,1802.89307 L755.929066,1802.89307 C755.27214,1802.89307 754.704803,1803.13122 754.227038,1803.60752 C753.749273,1804.08383 753.510394,1804.64943 753.510394,1805.30435 L753.510394,1862.99647 C753.510394,1863.65139 753.749273,1864.217 754.227038,1864.6933 C754.704803,1865.16961 755.27214,1865.40776 755.929066,1865.40776 L802.600479,1865.40776 C803.257405,1865.40776 803.824742,1865.16961 804.302507,1864.6933 C804.780272,1864.217 805.019151,1863.65139 805.019151,1862.99647 L805.019151,1850.40423 C805.019151,1849.74931 804.780272,1849.18371 804.302507,1848.7074 C803.824742,1848.2311 803.257405,1847.99295 802.600479,1847.99295 L775.009701,1847.99295 L775.009701,1842.36663 Z M879.23655,1808.43008 C884.044058,1812.12144 886.447776,1817.5691 886.447776,1824.77321 C886.447776,1831.91778 884.058988,1837.23147 879.281341,1840.71445 C874.503693,1844.19743 867.904666,1845.9389 859.484062,1845.9389 L853.213431,1845.9389 L853.213431,1862.99647 C853.213431,1863.65139 852.974552,1864.217 852.496787,1864.6933 C852.019022,1865.16961 851.451685,1865.40776 850.794759,1865.40776 L832.341187,1865.40776 C831.68426,1865.40776 831.116923,1865.16961 830.639158,1864.6933 C830.161394,1864.217 829.922515,1863.65139 829.922515,1862.99647 L829.922515,1805.30435 C829.922515,1804.64943 830.161394,1804.08383 830.639158,1803.60752 C831.116923,1803.13122 831.68426,1802.89307 832.341187,1802.89307 L859.484062,1802.89307 C867.844945,1802.89307 874.429042,1804.73872 879.23655,1808.43008 Z M859.03616,1829.41716 C860.11113,1829.41716 861.066646,1829.01528 861.902734,1828.21152 C862.738822,1827.40775 863.15686,1826.20212 863.15686,1824.59459 C863.15686,1823.22522 862.828402,1822.03447 862.171475,1821.02233 C861.514549,1820.01018 860.469454,1819.50411 859.03616,1819.50411 L852.765529,1819.50411 L852.765529,1829.41716 L859.03616,1829.41716 Z M942.793877,1860.13866 C937.478744,1864.24679 930.34224,1866.30082 921.38415,1866.30082 C912.426061,1866.30082 905.289557,1864.24679 899.974424,1860.13866 C894.659291,1856.03053 891.822605,1850.04704 891.464281,1842.18801 C891.404561,1840.58049 891.374701,1837.99062 891.374701,1834.41833 C891.374701,1830.78651 891.404561,1828.1371 891.464281,1826.47004 C891.643443,1821.34976 893.002066,1816.94401 895.540192,1813.25264 C898.078317,1809.56128 901.556989,1806.76303 905.976313,1804.85781 C910.395638,1802.9526 915.531532,1802 921.38415,1802 C927.236769,1802 932.372663,1802.9526 936.791987,1804.85781 C941.211311,1806.76303 944.689984,1809.56128 947.228109,1813.25264 C949.766234,1816.94401 951.124857,1821.34976 951.304019,1826.47004 C951.42346,1829.80417 951.48318,1832.45357 951.48318,1834.41833 C951.48318,1836.38309 951.42346,1838.97296 951.304019,1842.18801 C950.945696,1850.04704 948.10901,1856.03053 942.793877,1860.13866 Z M926.176704,1847.09988 C927.341256,1845.90912 927.953383,1844.09324 928.013103,1841.65217 C928.132544,1838.19896 928.192264,1835.66863 928.192264,1834.0611 C928.192264,1832.3345 928.132544,1829.86371 928.013103,1826.64865 C927.953383,1824.20759 927.326326,1822.3917 926.131914,1821.20094 C924.937502,1820.01018 923.35493,1819.41481 921.38415,1819.41481 C919.413371,1819.41481 917.830798,1820.01018 916.636387,1821.20094 C915.441975,1822.3917 914.814918,1824.20759 914.755197,1826.64865 C914.695477,1828.25618 914.665617,1830.72697 914.665617,1834.0611 C914.665617,1837.39524 914.695477,1839.92557 914.755197,1841.65217 C914.814918,1844.09324 915.427045,1845.90912 916.591596,1847.09988 C917.756148,1848.29064 919.35365,1848.88602 921.38415,1848.88602 C923.41465,1848.88602 925.012152,1848.29064 926.176704,1847.09988 Z M1009.26257,1860.13866 C1003.94743,1864.24679 996.810931,1866.30082 987.852841,1866.30082 C978.894752,1866.30082 971.758248,1864.24679 966.443115,1860.13866 C961.127981,1856.03053 958.291296,1850.04704 957.932972,1842.18801 C957.873252,1840.58049 957.843392,1837.99062 957.843392,1834.41833 C957.843392,1830.78651 957.873252,1828.1371 957.932972,1826.47004 C958.112134,1821.34976 959.470757,1816.94401 962.008882,1813.25264 C964.547008,1809.56128 968.02568,1806.76303 972.445004,1804.85781 C976.864329,1802.9526 982.000223,1802 987.852841,1802 C993.70546,1802 998.841354,1802.9526 1003.26068,1804.85781 C1007.68,1806.76303 1011.15867,1809.56128 1013.6968,1813.25264 C1016.23493,1816.94401 1017.59355,1821.34976 1017.77271,1826.47004 C1017.89215,1829.80417 1017.95187,1832.45357 1017.95187,1834.41833 C1017.95187,1836.38309 1017.89215,1838.97296 1017.77271,1842.18801 C1017.41439,1850.04704 1014.5777,1856.03053 1009.26257,1860.13866 Z M992.645395,1847.09988 C993.809947,1845.90912 994.422074,1844.09324 994.481794,1841.65217 C994.601235,1838.19896 994.660955,1835.66863 994.660955,1834.0611 C994.660955,1832.3345 994.601235,1829.86371 994.481794,1826.64865 C994.422074,1824.20759 993.795017,1822.3917 992.600605,1821.20094 C991.406193,1820.01018 989.823621,1819.41481 987.852841,1819.41481 C985.882061,1819.41481 984.299489,1820.01018 983.105077,1821.20094 C981.910666,1822.3917 981.283609,1824.20759 981.223888,1826.64865 C981.164168,1828.25618 981.134308,1830.72697 981.134308,1834.0611 C981.134308,1837.39524 981.164168,1839.92557 981.223888,1841.65217 C981.283609,1844.09324 981.895736,1845.90912 983.060287,1847.09988 C984.224839,1848.29064 985.822341,1848.88602 987.852841,1848.88602 C989.883341,1848.88602 991.480843,1848.29064 992.645395,1847.09988 Z M1075.28336,1847.81434 C1075.76112,1848.29064 1076,1848.85624 1076,1849.51116 L1076,1862.99647 C1076,1863.65139 1075.76112,1864.217 1075.28336,1864.6933 C1074.80559,1865.16961 1074.23825,1865.40776 1073.58133,1865.40776 L1028.43278,1865.40776 C1027.77586,1865.40776 1027.20852,1865.16961 1026.73075,1864.6933 C1026.25299,1864.217 1026.01411,1863.65139 1026.01411,1862.99647 L1026.01411,1805.30435 C1026.01411,1804.64943 1026.25299,1804.08383 1026.73075,1803.60752 C1027.20852,1803.13122 1027.77586,1802.89307 1028.43278,1802.89307 L1046.34887,1802.89307 C1047.0058,1802.89307 1047.57314,1803.13122 1048.0509,1803.60752 C1048.52867,1804.08383 1048.76754,1804.64943 1048.76754,1805.30435 L1048.76754,1847.09988 L1073.58133,1847.09988 C1074.23825,1847.09988 1074.80559,1847.33803 1075.28336,1847.81434 Z" id="path-1"></path>
        <filter x="-0.4%" y="-3.9%" width="101.5%" height="115.8%" filterUnits="objectBoundingBox" id="filter-2">
            <feOffset dx="5" dy="6" in="SourceAlpha" result="shadowOffsetOuter1"></feOffset>
            <feColorMatrix values="0 0 0 0 0   0 0 0 0 0   0 0 0 0 0  0 0 0 1 0" type="matrix" in="shadowOffsetOuter1"></feColorMatrix>
        </filter>
    </defs>
    <g id="Page-1" stroke="none" stroke-width="1" fill="none" fill-rule="evenodd">
        <g id="FINAL-DRAFT-12.10.-Copy" transform="translate(-365.000000, -1802.000000)">
            <g id="C-U-@-THE-POOL">
                <use fill="black" fill-opacity="1" filter="url(#filter-2)" xlink:href="#path-1"></use>
                <use fill="#F6E300" fill-rule="evenodd" xlink:href="#path-1"></use>
            </g>
        </g>
    </g>
</svg>
