<svg width="1440px" height="1687px" viewBox="0 0 1440 1687" version="1.1" xmlns="http://www.w3.org/2000/svg" xmlns:xlink="http://www.w3.org/1999/xlink">
    <!-- Generator: Sketch 47.1 (45422) - http://www.bohemiancoding.com/sketch -->
    <desc>Created with Sketch.</desc>
    <defs>
        <linearGradient x1="50%" y1="0%" x2="50%" y2="100%" id="linearGradient-1">
            <stop stop-color="#6ACEF5" offset="0%"></stop>
            <stop stop-color="#2B9CBA" offset="100%"></stop>
        </linearGradient>
        <linearGradient x1="50%" y1="108.298097%" x2="50%" y2="50%" id="linearGradient-2">
            <stop stop-color="#39BDE1" offset="0%"></stop>
            <stop stop-color="#0A8495" stop-opacity="0" offset="100%"></stop>
        </linearGradient>
    </defs>
    <g id="Page-1" stroke="none" stroke-width="1" fill="none" fill-rule="evenodd" opacity="0.860074627">
        <g id="FINAL-DRAFT-12.10.-Copy" transform="translate(0.000000, -257.000000)">
            <g id="Iceberg" transform="translate(0.000000, 257.000000)">
                <g id="Group-2">
                    <g id="Page-1" transform="translate(393.000000, 0.000000)">
                        <polygon id="Fill-1" fill="#E1F4FD" points="480.774421 207.074394 404.726606 192 303.757738 229.0266 182.078991 215.410553 124.234212 252.002377 87 401.738789 307.709418 435 454.503037 393.778046 491.338397 404.743721 636 404.743721"></polygon>
                        <polygon id="Fill-2" fill="#FFFFFF" points="329.975014 0 134.139604 113.104453 74 213.078353 86.0560585 401.005678 489.616669 404 634 404 566.952263 230.564429 497.800592 171.535328 463.259929 86.5138454 365.756296 68.615091"></polygon>
                        <polygon id="Fill-3" fill="#E1F4FD" points="49.8159911 303.207365 0 404.118711 126 409 103.100033 244"></polygon>
                        <polygon id="Fill-4" fill="#DFF3FD" points="330.709183 0 139.434099 113.060906 84.0203017 212.996316 95.5679108 252.300854 50.0561804 302.730645 0 403.844456 307.045709 434 451.949475 403.844456 454 363.518211 296.741861 392.917468 256.368448 341.338056 295.29961 312.909341 315.055722 243.40289 283.446263 251.285543 236.181742 219.599836 276.555154 225.760457 330.709183 191.82028 330.709183 157.667448 276.555154 113.019334"></polygon>
                        <polygon id="Fill-5" fill="#1D8687" points="308.317092 436.724211 4 406.834431 53.1512631 486.827907 38.472993 595.245122 64.5676954 608.28099 38.472993 697.406706 129.483979 882.018373 235.742788 929.270819 253.789191 1014 355.612154 976.524851 536.986835 795.661491 536.986835 721.904629 643.581981 641.074321 655 541.394704 620.623783 423.250908 453.708435 396"></polygon>
                        <g id="Group-24" transform="translate(1.000000, 127.000000)">
                            <path d="M0.000159924899,276.760401 L49.5464929,357.54701 L34.7502412,467.039179 L61.0546886,480.204298 L34.7502412,570.213692 L126.49116,756.657379 L200.376463,681.365707 L238.668881,776.460278 C238.668881,776.460278 270.137303,730.479201 268.691582,728.390389 C267.245861,726.299977 259.102485,612.193213 259.102485,612.193213 L141.18346,584.004654 L165.960625,479.680894 L213.483908,475.501669 L306.763304,306.946537 L0.000159924899,276.760401 Z" id="Fill-6" fill="#3ED7D9"></path>
                            <polygon id="Fill-8" fill="#3ED7D9" points="452.41983 265.819507 305.861454 306.947497 212.582058 475.501029 285.886834 516.63222 323.154134 631.392038 323.176523 712.010581 433.940508 589.372501 416.164856 487.829022"></polygon>
                            <polygon id="Fill-10" fill="#22B7B8" points="452.41983 265.819507 495.463617 272.542121 439.11088 497.999376 416.164856 487.829022"></polygon>
                            <polygon id="Fill-12" fill="#3ED7D9" points="633.626895 276.760401 488.674165 462.331749 439.11024 497.998416 495.462977 272.541161"></polygon>
                            <polygon id="Fill-14" fill="#3ED7D9" points="571.271857 337.552036 601.424098 428.950771 497.383355 560.171388 505.389196 631.391077 462.829982 562.200977 489.1968 443.105074"></polygon>
                            <polygon id="Fill-16" fill="#DFF3FD" points="452.680668 236.390786 455.212279 175.536727 514.966618 153.809879 505.388716 220.021222 558.075974 209.580362 495.463777 272.540841 449.582923 266.615337"></polygon>
                            <polygon id="Fill-18" fill="#C7EAFB" points="83.0417707 85.7072419 192.182518 0.514119884 212.580939 10.5580248 159.226794 116.147877 231.352924 153.81052 277.380909 153.81052 225.4405 180.140757 143.059986 175.537367 133.018302 216.844627 192.182518 238.219337 212.959961 293.91299 83.0417707 276.760721 83.0417707 197.419474 101.073303 146.706958"></polygon>
                            <polygon id="Fill-20" fill="#DFF3FD" points="432.391795 85.7072419 392.946319 143.371261 432.391795 180.140757 424.341176 132.923999"></polygon>
                            <polygon id="Fill-22" fill="#C7EAFB" points="455.212279 175.537527 412.669057 243.8857 452.680668 236.391586"></polygon>
                        </g>
                    </g>
                    <rect id="Rectangle" fill="url(#linearGradient-1)" opacity="0.672516325" x="0" y="411" width="1440" height="1433"></rect>
                </g>
                <rect id="Rectangle-8" fill="url(#linearGradient-2)" x="0" y="409" width="1440" height="1435"></rect>
            </g>
        </g>
    </g>
</svg>
