<svg width="290px" height="26px" viewBox="0 0 290 26" version="1.1" xmlns="http://www.w3.org/2000/svg" xmlns:xlink="http://www.w3.org/1999/xlink">
    <!-- Generator: Sketch 47.1 (45422) - http://www.bohemiancoding.com/sketch -->
    <desc>Created with Sketch.</desc>
    <defs>
        <polygon id="path-1" points="0 21.5496539 0 0.170743714 23.0331908 0.170743714 23.0331908 21.5496539"></polygon>
        <polygon id="path-3" points="0 22.6806364 99.2676046 22.6806364 99.2676046 0.175757576 0 0.175757576"></polygon>
    </defs>
    <g id="Page-1" stroke="none" stroke-width="1" fill="none" fill-rule="evenodd">
        <g id="FINAL-DRAFT-12.10.-Copy" transform="translate(-575.000000, -187.000000)">
            <g id="Logos" transform="translate(575.000000, 187.000000)">
                <path d="M15.3100061,5.87709023 L15.3100061,3.15151515 L0,3.15151515 L0,5.87709023 L6.28753475,5.87709023 L6.28753475,23.6363636 L9.02247139,23.6363636 L9.02247139,5.87709023 L15.3100061,5.87709023 Z M33.4036498,23.6363636 L30.4808304,23.6363636 L29.0333389,19.2467532 L21.0721357,19.2467532 L19.5968079,23.6363636 L16.7018249,23.6363636 L23.6052458,3.15151515 L26.4167197,3.15151515 L33.4036498,23.6363636 Z M22.2690998,16.8080808 L27.8363748,16.8080808 L25.0780431,7.24848485 L22.2690998,16.8080808 Z M38.8577439,20.9681691 L38.8577439,3.15151515 L36.1872872,3.15151515 L36.1872872,23.6363636 L48.7136559,23.6363636 L48.7136559,20.9681691 L38.8577439,20.9681691 Z M65.2545424,5.93447076 L65.2545424,3.15151515 L52.8891121,3.15151515 L52.8891121,23.6363636 L65.4154808,23.6363636 L65.4154808,20.8820983 L55.4909489,20.8820983 L55.4909489,14.7423818 L64.5303198,14.7423818 L64.5303198,11.9881165 L55.4909489,11.9881165 L55.4909489,5.93447076 L65.2545424,5.93447076 Z M82.2603672,19.1893727 L82.3137121,19.1893727 L82.3137121,3.15151515 L84.9009431,3.15151515 L84.9009431,23.6363636 L81.593555,23.6363636 L72.231513,7.31160343 L72.178168,7.31160343 L72.178168,23.6363636 L69.590937,23.6363636 L69.590937,3.15151515 L72.8983251,3.15151515 L82.2603672,19.1893727 Z M102.994587,5.87709023 L102.994587,3.15151515 L87.6845806,3.15151515 L87.6845806,5.87709023 L93.9721154,5.87709023 L93.9721154,23.6363636 L96.707052,23.6363636 L96.707052,5.87709023 L102.994587,5.87709023 Z M118.143655,5.93447076 L118.143655,3.15151515 L105.778224,3.15151515 L105.778224,23.6363636 L118.304593,23.6363636 L118.304593,20.8820983 L108.380061,20.8820983 L108.380061,14.7423818 L117.419432,14.7423818 L117.419432,11.9881165 L108.380061,11.9881165 L108.380061,5.93447076 L118.143655,5.93447076 Z M122.480049,3.15151515 L127.918029,3.15151515 C134.49938,3.15151515 137.790055,7.9714795 137.790055,13.2504881 C137.790055,19.5336559 133.969525,23.6363636 127.72282,23.6363636 L122.480049,23.6363636 L122.480049,3.15151515 Z M125.263687,5.88282828 L125.263687,20.9050505 L127.31771,20.9050505 C131.564541,20.9050505 135.006418,18.9419192 135.006418,13.16633 C135.006418,9.18316498 132.813609,6.6510101 129.732575,6.05353535 C129.066405,5.91127946 128.316964,5.88282828 127.484252,5.88282828 L125.263687,5.88282828 Z" id="TALENTED" fill="#000000"></path>
                <g id="Page-1" transform="translate(189.861878, 1.575758)">
                    <path d="M50.2669208,22.6805661 C46.1753336,19.1107539 42.1744069,15.6203842 38.0477595,12.0201661 L38.0477595,21.5175782 L32.6924142,21.5175782 L32.6924142,0.236147879 C36.7585032,3.79119636 40.7636796,7.29316606 44.768679,10.79496 C44.8115302,10.7765055 44.8543815,10.7576994 44.8970557,10.7390691 L44.8970557,0.210311515 L50.2669208,0.210311515 L50.2669208,22.6805661 Z" id="Fill-1" fill="#231F20"></path>
                    <path d="M67.7964514,13.6288752 C69.3263477,14.552657 70.8270272,15.458863 72.3262902,16.3641903 C70.8376515,19.2295661 66.9084387,22.02956 62.0345503,21.5147661 C56.9554362,20.9783539 53.0495968,17.1682812 52.4611888,12.1156024 C51.8577297,6.93374182 54.8813997,2.60711758 59.2182308,0.91756 C63.8160649,-0.873585455 68.6290408,0.783632727 71.0784685,3.70402061 C69.7844312,4.8835297 68.4889774,6.06426909 67.1597029,7.27594182 C65.7966078,5.94299636 64.1923415,5.29849333 62.2806794,5.60835394 C60.7893847,5.85002061 59.6072565,6.60982061 58.7426172,7.83485091 C57.0514089,10.2309539 57.6090065,13.4383539 60.0074377,15.202257 C62.1494696,16.7777479 65.7213525,16.7048085 67.7964514,13.6288752" id="Fill-3" fill="#231F20"></path>
                    <g id="Group-7" transform="translate(0.000000, 0.007909)">
                        <mask id="mask-2" fill="white">
                            <use xlink:href="#path-1"></use>
                        </mask>
                        <g id="Clip-6"></g>
                        <path d="M-7.08285323e-05,0.17226 C2.02473984,0.17226 3.92205915,0.163296364 5.81920139,0.18895697 C5.97431587,0.191066061 6.18874925,0.398108485 6.27055621,0.56156303 C7.89235253,3.81044182 9.49856657,7.06705394 11.108322,10.3217327 C11.1819837,10.4704236 11.2604263,10.6168297 11.3895113,10.866757 C11.8576879,9.97636909 12.2815967,9.17368424 12.7021411,8.36941758 C14.0625801,5.76715091 15.4169987,3.16189636 16.7917805,0.567011515 C16.8829723,0.395296364 17.1221956,0.191241818 17.2953714,0.188781212 C19.1420483,0.162769091 20.9890794,0.174017576 22.8361104,0.17735697 C22.8816178,0.17735697 22.926948,0.20196303 23.0331908,0.232720606 C19.1555057,7.32436303 15.2900386,14.39386 11.3771163,21.5496539 C7.57645727,14.4082721 3.81262907,7.33631455 -7.08285323e-05,0.17226" id="Fill-5" fill="#231F20" mask="url(#mask-2)"></path>
                    </g>
                    <g id="Group-10" transform="translate(83.046454, 0.183667)" fill="#231F20">
                        <polygon id="Fill-8" points="10.8341271 21.3365479 5.43327442 21.3365479 5.43327442 5.37670545 0.00285084843 5.37670545 0.00285084843 0.037190303 16.2211682 0.037190303 16.2211682 5.33557818 10.8341271 5.33557818"></polygon>
                    </g>
                    <mask id="mask-4" fill="white">
                        <use xlink:href="#path-3"></use>
                    </mask>
                    <g id="Clip-12"></g>
                    <polygon id="Fill-11" fill="#231F20" mask="url(#mask-4)" points="24.5367743 21.5174727 29.8653819 21.5174727 29.8653819 0.217587879 24.5367743 0.217587879"></polygon>
                    <polygon id="Fill-13" fill="#231F20" mask="url(#mask-4)" points="74.8528325 21.518 80.1925955 21.518 80.1925955 0.215654545 74.8528325 0.215654545"></polygon>
                </g>
                <path d="M157.910589,0.00012159802 C154.438443,0.016504829 151.40884,2.61680179 151.40884,7.9088945 L151.40884,7.9088945 C151.40884,16.1088562 164.464513,26 164.464513,26 L164.464513,26 C164.464513,26 177.519244,16.1088562 177.519244,7.9088945 L177.519244,7.9088945 C177.519244,-0.782564077 169.343183,-2.2137784 164.464513,3.13890135 L164.464513,3.13890135 C162.575844,1.06719543 160.192456,0.0115589479 157.980994,0.00012159802 L157.980994,0.00012159802 L157.910589,0.00012159802 Z" id="Page-1" fill="#000000"></path>
            </g>
        </g>
    </g>
</svg>
