<svg width="157px" height="121px" viewBox="0 0 157 121" version="1.1" xmlns="http://www.w3.org/2000/svg" xmlns:xlink="http://www.w3.org/1999/xlink">
    <!-- Generator: Sketch 47.1 (45422) - http://www.bohemiancoding.com/sketch -->
    <desc>Created with Sketch.</desc>
    <defs></defs>
    <g id="Page-1" stroke="none" stroke-width="1" fill="none" fill-rule="evenodd">
        <g id="FINAL-DRAFT-12.10.-Copy" transform="translate(-152.000000, -584.000000)">
            <g id="Mluto" transform="translate(153.000000, 580.000000)">
                <g id="Group-14" transform="translate(54.505208, 53.789739)" stroke="#000000" stroke-width="0.84">
                    <g id="Group-13" transform="translate(0.952626, 0.000000)">
                        <path d="M0.0749760062,16.1202901 C12.9491808,5.27584057 20.4127881,-0.070800415 22.465798,0.0803671429 C25.5453128,0.30711848 29.888584,-0.393914994 27.906128,9.68266652 C26.5844907,16.4003875 25.3547319,20.1805486 24.2168517,21.0231498 C21.8742189,22.5367303 20.0850246,23.3466433 18.849269,23.4528888 C17.6135133,23.5591342 15.1522898,23.5591342 11.4655984,23.4528888 L14.5545332,17.392212 L8.78089316,22.1084211 L0.0749760062,16.1202901 Z" id="Path-13" fill="#FAC17D"></path>
                        <path d="M10.02235,21.0359091 C13.8822208,17.7607116 16.411521,15.5697891 17.6102506,14.4631416 C19.0128987,13.1682399 19.9705959,12.1964308 20.483342,11.5477145" id="Path-14"></path>
                        <path d="M22.2574263,11.7183248 C19.8632229,13.5212774 18.0079224,14.6921577 16.6915249,15.2309655" id="Path-15"></path>
                    </g>
                    <path d="M3.90093814,33.8087171 C1.03247583,36.5533075 -0.19594254,38.9602013 0.21568302,41.0293984 C0.83312136,44.133194 11.3628395,47.1597046 20.5004883,41.0293984 C26.5922541,36.9425275 21.0590707,34.5356338 3.90093814,33.8087171 Z" id="Path-28" fill="#FAC17D"></path>
                </g>
                <path d="" id="Path-11" stroke="#979797" stroke-width="0.5"></path>
                <path d="M100.078494,62.1380327 C94.6563991,60.7997776 88.7205051,64.5130651 82.2708121,73.2778953 C80.2056417,76.084365 73.9968199,76.0605992 71.4313694,76.2354244 C61.9786583,76.8795891 54.1513015,64.856233 49.3139107,67.014978 C45.2137435,68.844728 38.5806118,76.0216703 29.4145154,88.5458049 C32.56158,84.5256973 33.422172,81.4171865 31.9962915,79.2202723 C29.8574708,75.9249012 22.2705433,76.6685953 11.3979543,84.9776103 C11.1012508,85.2043561 8.96882064,84.6700011 7.31896712,84.9776103 C5.6691136,85.2852196 4.25057498,86.1235153 3.58945096,86.9288984 C3.44249978,87.1079148 3.1023403,87.6896487 2.37141501,88.9198898 C1.93106154,89.6610612 1.40933621,89.6371118 0.977365465,90.3109612 C0.620019064,90.8684009 0.117916598,91.4056088 0.015133497,92.4314435 C-0.0648035329,93.2292611 0.190944778,94.5572724 0.337581629,94.9085267 C0.965193018,96.4119085 2.51188505,97.3955053 4.97765772,97.8593172 C3.72645185,98.8444924 4.25357969,99.4666317 6.55904123,99.725735 C7.97540828,99.8849159 10.1686651,100.26171 12.1427254,99.725735 C14.9885177,98.9530767 17.5205831,97.0792316 17.8058349,96.6157671 C18.2889593,95.8308081 15.7462568,100.38175 17.4532599,104.059219 C19.1602631,107.736689 24.0592472,108.110045 28.0977,105.862986 C30.790002,104.364946 37.8620722,96.9530628 49.3139107,83.627335 C49.7157537,83.4416037 50.4491716,83.5963843 51.5141645,84.0916767 C52.2950028,84.4548183 53.282282,84.9584806 54.4760022,85.6026636 C59.9298673,88.5458049 69.7842547,93.9958979 74.8789717,94.9085267 C78.2754497,95.5169458 80.4115925,95.6968854 81.2874001,95.4483454 C80.465273,98.1036076 80.711765,99.624777 82.0268763,100.011853 C83.9995431,100.592468 86.360937,99.0209109 87.1362002,98.3157226 C87.6530423,97.8455971 89.2343041,97.6934619 91.8799855,97.8593172 L80.2119643,111.065935 C79.6966938,110.949849 77.5393821,110.739382 77.5045686,110.292632 C77.4070673,109.041433 75.7385899,104.863119 70.9442281,106.158393 C69.7652048,106.476925 69.4119193,105.297926 68.7102796,105.383815 C65.4822683,105.227293 63.8682626,106.136036 63.8682626,108.110045 C63.8682626,108.531334 62.9540875,108.438647 62.1755012,108.796292 C61.8366379,108.95195 61.337385,109.332591 60.6777425,109.938217 C59.5142999,111.742469 59.5142999,113.548786 60.6777425,115.357166 C62.4229062,118.069737 72.4133207,126.66422 80.6140203,123.681011 C88.8147198,120.697802 99.9295033,105.91908 105.550983,95.4483454 C105.75151,95.0748376 105.689801,95.1388905 105.980518,95.0989384 C106.373215,95.0449717 107.124015,94.9657166 107.353479,94.9085267 C108.144648,94.7113417 108.376812,94.7215612 109.515671,94.4282628 C111.551878,93.903864 112.439614,93.6416646 112.178881,93.6416646 L112.178881,94.9085267 C109.127005,97.2365708 107.870321,99.203036 108.40883,100.807922 C109.216594,103.215252 110.182477,103.508837 110.665602,104.059219 C111.148726,104.609601 111.765504,105.862986 113.243361,105.862986 C114.228599,105.862986 116.048258,104.980408 118.702339,103.215252 C120.779932,104.170801 122.539824,102.814091 123.982016,99.1451202 C126.145303,93.6416646 129.536669,78.8276107 121.818729,79.2202723 C116.673435,79.4820468 113.460152,80.0516126 112.178881,80.9289698 L112.178881,79.5961785 L100.078494,62.1380327 Z" id="Path-12" stroke="#000000" stroke-width="0.84" fill="#FAC17D"></path>
                <path d="M89.4444444,77.7582233 C87.9537037,80.0098814 87.4567901,82.2395079 87.9537037,84.4471027" id="Path-16" stroke="#000000" stroke-width="0.84"></path>
                <path d="M90.5625,79.4304432 C84.7875778,89.6629554 81.712925,95.0512194 81.3385417,95.5952351" id="Path-17" stroke="#000000" stroke-width="0.84"></path>
                <path d="M100.904514,80.8239597 C100.317659,83.0638926 99.5722884,84.5503103 98.6684028,85.2832127" id="Path-18" stroke="#000000" stroke-width="0.84"></path>
                <path d="M113.482639,80.5452564 C102.0978,83.9512497 94.6440962,86.4595795 91.1215278,88.0702458" id="Path-19" stroke="#000000" stroke-width="0.84"></path>
                <path d="M52.5486111,79.7091465 C51.6296677,80.8942181 50.6979547,82.1948335 49.7534722,83.6109928" id="Path-20" stroke="#000000" stroke-width="0.84"></path>
                <path d="M53.6666667,80.5452564 C52.3085901,81.7648066 51.0041919,82.6009166 49.7534722,83.0535862" id="Path-21" stroke="#000000" stroke-width="0.84"></path>
                <path d="M29.0694444,88.3489491 C26.5391223,91.4629384 24.7688676,93.4138616 23.7586806,94.2017186" id="Path-22" stroke="#000000" stroke-width="0.84"></path>
                <path d="M24.5972222,91.6933888 C25.0326905,90.95018 25.9644035,90.7024437 27.3923611,90.95018" id="Path-23" stroke="#000000" stroke-width="0.84"></path>
                <path d="M19.8454861,88.6276524 C18.6032022,90.2016311 18.1891075,91.6880488 18.6032022,93.0869053" id="Path-24" stroke="#000000" stroke-width="0.84"></path>
                <path d="M20.4045139,89.4637623 C19.0387328,91.0202461 18.1070199,93.3427737 17.609375,96.431345" id="Path-25" stroke="#000000" stroke-width="0.84"></path>
                <path d="M2.92291368,88.3489491 C1.97657579,90.6558564 2.67935456,92.4209774 5.03125,93.6443119" id="Path-26" stroke="#000000" stroke-width="0.84"></path>
                <path d="M5.03125,97.9642132 L7.26736111,97.9642132" id="Path-27" stroke="#000000" stroke-width="0.84"></path>
                <path d="M63.7291667,108.136884 C65.5925926,108.556905 66.5243056,109.300114 66.5243056,110.366511" id="Path-29" stroke="#000000" stroke-width="0.84"></path>
                <path d="M66.8038194,110.645214 C68.5997157,109.809104 70.2767991,109.600076 71.8350694,110.018131" id="Path-30" stroke="#000000" stroke-width="0.84"></path>
                <path d="M70.9965278,106.743367 C72.7197842,107.208452 73.4470215,108.509067 73.1782395,110.645214" id="Path-31" stroke="#000000" stroke-width="0.84"></path>
                <ellipse id="Oval-4" fill="#000000" transform="translate(68.201389, 113.014192) rotate(10.000000) translate(-68.201389, -113.014192) " cx="68.2013889" cy="113.014192" rx="2.23611111" ry="1"></ellipse>
                <ellipse id="Oval-4-Copy" fill="#000000" transform="translate(75.888021, 112.874840) rotate(7.000000) translate(-75.888021, -112.874840) " cx="75.8880208" cy="112.87484" rx="2.37586806" ry="1"></ellipse>
                <ellipse id="Oval-4-Copy-2" fill="#000000" transform="translate(76.307292, 110.645214) rotate(6.000000) translate(-76.307292, -110.645214) " cx="76.3072917" cy="110.645214" rx="1.67708333" ry="1"></ellipse>
                <path d="M78.5434028,112.87484 C79.4272569,112.133383 79.9862846,111.575977 80.2204861,111.20262" id="Path-32" stroke="#000000" stroke-width="0.84"></path>
                <path d="M114.321181,86.1193226 C112.582456,89.2241582 111.857712,92.9402023 112.146947,97.267455" id="Path-33" stroke="#000000" stroke-width="0.84"></path>
                <path d="M110.128472,104.075576 C112.179966,104.462969 113.670707,104.144519 114.600694,103.120224" id="Path-34" stroke="#000000" stroke-width="0.84"></path>
                <path d="M118.793403,102.841521 C119.410008,102.444231 119.782693,101.701022 119.911458,100.611895" id="Path-35" stroke="#000000" stroke-width="0.84"></path>
                <path d="M84.9722222,97.8248616 C86.7649756,97.8248616 88.0693738,97.8248616 88.8854167,97.8248616" id="Path-36" stroke="#000000" stroke-width="0.84"></path>
                <path d="M47.2378472,68.2823108 C42.6889054,62.8107795 42.0815668,52.5372558 45.4158314,37.4617395 C50.4172283,14.8484652 28.4220578,10.2183356 22.3611111,17.9884716" id="Path-37" stroke="#000000" stroke-width="1.68"></path>
                <path d="M105.935764,95.5952351 C101.017992,96.9910025 96.3594273,97.7342113 91.9600694,97.8248616" id="Path-38" stroke="#000000" stroke-width="0.84"></path>
                <path d="M102.22402,57.4128817 L99.8150288,59.6231746 C99.5771845,64.4490911 100.824352,68.6601373 103.55653,72.256313 C107.654797,77.6505765 110.140161,79.7091465 111.429757,79.7091465 C112.719353,79.7091465 117.032189,78.4806332 117.387865,76.7207215 C117.624982,75.5474471 112.570367,69.1115005 102.22402,57.4128817 Z" id="Path-10" stroke="#000000" stroke-width="0.84" fill="#00EAED"></path>
                <g id="Group-12" transform="translate(120.044564, 42.375076) rotate(-13.000000) translate(-120.044564, -42.375076) translate(85.544564, 6.875076)" stroke="#000000" stroke-width="0.84">
                    <path d="M16.9811574,35.6878849 C14.9315555,41.7312973 13.9067545,45.895681 13.9067545,48.1810358 C13.9067545,51.739572 16.3620971,53.1983805 16.9811574,55.7476587 C17.3790345,57.3861088 16.4741418,59.6348944 16.9811574,62.0873798 C17.1083118,62.7024383 17.7781763,63.7683973 18.9907509,65.2852567 C21.7285636,68.5333073 26.6947373,69.5494188 33.889272,68.3335913 C36.44063,67.9024292 36.4652222,69.6529112 38.5786907,70.155024 C40.3701359,70.5806314 42.6925776,70.7216839 45.5460158,70.5781815 C51.0599658,69.6768299 54.5027636,68.7064422 55.8744091,67.6670183 C56.8842687,66.9017534 57.6567674,66.3786263 58.0076982,65.2852567 C59.6065639,60.3037874 58.7252791,53.6133151 58.5623093,53.1977985 C58.3993395,52.7822819 62.4093504,47.8601201 61.6546976,44.8041447 C61.2616383,43.2124463 59.052969,33.6367231 45.5460158,28.5120368 C43.0250395,27.5555507 37.1491959,28.0548741 27.9184851,30.0100069 L16.9811574,35.6878849 Z" id="Path-6" fill="#F5ECE4"></path>
                    <ellipse id="Oval" fill="#000000" cx="52.4322231" cy="15.6655876" rx="13.7188254" ry="13.971837"></ellipse>
                    <ellipse id="Oval-Copy" fill="#000000" transform="translate(17.403183, 19.458830) rotate(21.000000) translate(-17.403183, -19.458830) " cx="17.4031832" cy="19.45883" rx="12.4956497" ry="15.8705105"></ellipse>
                    <ellipse id="Oval-2" fill="#FFFFFF" transform="translate(49.367763, 44.460774) rotate(26.000000) translate(-49.367763, -44.460774) " cx="49.3677626" cy="44.4607739" rx="2.63100761" ry="10.2460138"></ellipse>
                    <ellipse id="Oval-2" fill="#FFFFFF" transform="translate(53.489212, 48.604066) rotate(26.000000) translate(-53.489212, -48.604066) " cx="53.489212" cy="48.6040662" rx="1.76562433" ry="6.87592508"></ellipse>
                    <ellipse id="Oval-2" fill="#000000" transform="translate(54.660774, 46.124667) rotate(26.000000) translate(-54.660774, -46.124667) " cx="54.6607745" cy="46.1246672" rx="1.06538517" ry="4.1489622"></ellipse>
                    <ellipse id="Oval-2-Copy" fill="#000000" transform="translate(51.665991, 42.552504) rotate(26.000000) translate(-51.665991, -42.552504) " cx="51.6659907" cy="42.5525036" rx="1.49744656" ry="5.83155215"></ellipse>
                    <path d="M59.173813,41.0270186 C57.9052915,31.0250269 50.510966,25.3598836 36.9908365,24.0315888 C30.5360932,23.397438 24.6358281,27.3314892 21.8434562,29.6796312 C19.5755824,31.5867158 17.8646444,33.9065016 16.7106422,36.6389886 C22.6979568,34.7031116 27.7010801,36.1657883 31.7200121,41.0270186 C32.2482746,41.6659958 32.1381471,38.7706802 35.6661565,33.605208 C36.5150593,32.3623019 38.6965542,30.3305639 42.2106411,27.5099941 C45.0283543,26.6903615 47.3482267,27.1729478 49.1702582,28.9577529 C50.9922897,30.7425581 54.3268079,34.7656466 59.173813,41.0270186 Z" id="Path-2" fill="#000000"></path>
                    <path d="M19.4682818,43.911257 C22.839505,44.0839644 25.4800558,44.9306432 27.3899344,46.4512933" id="Path-7"></path>
                    <path d="M24.9365785,45.1243326 C24.6338425,56.316035 27.089523,63.5186868 32.3036201,66.7322878 C34.0250801,67.7932742 29.915966,67.7163199 28.4154695,67.7348763 C24.2059719,67.7869343 19.8696113,65.5001646 18.9327572,62.4628729 C17.2358894,56.961608 22.9963573,50.391606 23.3839611,49.3317112 C23.6423636,48.6251146 23.8012958,47.092033 23.8607578,44.7324662 L24.9365785,45.1243326 Z" id="Path-8" fill="#000000"></path>
                    <path d="M21.8349811,53.8552753 C24.315988,55.6093958 25.2584476,57.6164526 24.66236,59.8764457 C24.2673865,61.3739389 24.1399866,60.6972527 24.66236,60.4522382 C25.8899555,59.8764457 27.0390784,61.2848373 27.2212424,62.2216404 C27.547549,63.8997162 27.6009547,66.3968182 26.6011131,66.3968182 C25.6012714,66.3968182 20.3020007,65.551231 19.5697379,61.2368806 C19.0815626,58.3606469 19.8366437,55.9001118 21.8349811,53.8552753 Z" id="Path-9" fill="#F5E4E7"></path>
                    <ellipse id="Oval-3" fill="#000000" transform="translate(58.140709, 60.028510) rotate(-37.000000) translate(-58.140709, -60.028510) " cx="58.1407086" cy="60.0285102" rx="8.08095195" ry="5.89208033"></ellipse>
                    <g id="Group-7" transform="translate(31.196233, 26.656766)">
                        <path d="M23.9044366,29.9899659 C17.2682633,28.6202205 12.8193841,27.8546674 10.557799,27.6933065 C6.40810619,27.3972319 5.70871392,27.0122181 3.34638621,26.5515841 C1.69117111,26.2288311 0.9723013,24.7142245 0.563420296,22.74062 C-1.27685587,13.8578958 3.05029548,6.27420703 7.60635752,2.59534148 C9.76574631,0.851708286 11.2123972,0.538434145 12.3956136,0.205575205 C16.0752803,-0.829577819 29.4685332,10.9245939 30.1461058,17.7500545 C30.5978208,22.3003616 28.5172644,26.3803321 23.9044366,29.9899659 Z M28.3167333,16.9614098 C21.1536487,8.63179359 17.2139888,4.46698548 16.4977538,4.46698548 C15.9887862,4.46698548 11.4628793,7.65831583 9.35167577,12.03943 C7.00645176,16.9061773 7.0999893,23.0340294 7.48669953,23.4832377 C7.97658766,24.052299 13.0292626,26.0431645 22.6447243,29.4558342 C24.7696022,27.8641105 26.1853104,26.4783274 26.8918489,25.298485 C27.5983873,24.1186426 28.0733487,21.3396175 28.3167333,16.9614098 Z" id="Combined-Shape" fill="#FF0404"></path>
                        <path d="M16.6280562,1.5852941 C8.88797046,5.83069498 4.93754386,14.2071266 4.77677637,26.7145889" id="Path-5"></path>
                    </g>
                </g>
            </g>
        </g>
    </g>
</svg>
