<svg width="660px" height="330px" viewBox="0 0 660 330" version="1.1" xmlns="http://www.w3.org/2000/svg" xmlns:xlink="http://www.w3.org/1999/xlink">
    <!-- Generator: Sketch 47.1 (45422) - http://www.bohemiancoding.com/sketch -->
    <desc>Created with Sketch.</desc>
    <defs>
        <path d="M566.10705,270.585022 C576.24258,278.38387 581.31027,289.893288 581.31027,305.11362 C581.31027,320.208165 576.274057,331.434564 566.20148,338.793155 C556.128902,346.151745 542.216364,349.830985 524.463446,349.830985 L511.243255,349.830985 L511.243255,385.86903 C511.243255,387.252697 510.739634,388.447664 509.732376,389.453967 C508.725118,390.46027 507.529018,390.963414 506.144038,390.963414 L467.238903,390.963414 C465.853924,390.963414 464.657823,390.46027 463.650566,389.453967 C462.643308,388.447664 462.139687,387.252697 462.139687,385.86903 L462.139687,263.981192 C462.139687,262.597525 462.643308,261.402559 463.650566,260.396256 C464.657823,259.389953 465.853924,258.886809 467.238903,258.886809 L524.463446,258.886809 C542.090457,258.886809 555.971519,262.786174 566.10705,270.585022 Z M523.519147,314.925025 C525.785477,314.925025 527.799962,314.07597 529.562663,312.377834 C531.325364,310.679697 532.206701,308.132531 532.206701,304.736259 C532.206701,301.843138 531.514222,299.327418 530.129243,297.189024 C528.744263,295.05063 526.54092,293.981449 523.519147,293.981449 L510.298956,293.981449 L510.298956,314.925025 L523.519147,314.925025 Z M700.103133,379.831243 C688.897391,388.510606 673.851705,392.850222 654.965622,392.850222 C636.07954,392.850222 621.033854,388.510606 609.828111,379.831243 C598.622369,371.15188 592.641866,358.510388 591.886423,341.906389 C591.760516,338.510117 591.697563,333.038426 591.697563,325.491154 C591.697563,317.818094 591.760516,312.220617 591.886423,308.698557 C592.264145,297.8808 595.128491,288.572637 600.479547,280.773789 C605.830604,272.974941 613.164589,267.063 622.481723,263.037788 C631.798857,259.012576 642.626715,257 654.965622,257 C667.304529,257 678.132387,259.012576 687.449521,263.037788 C696.766655,267.063 704.10064,272.974941 709.451697,280.773789 C714.802754,288.572637 717.6671,297.8808 718.044822,308.698557 C718.296636,315.742678 718.422541,321.340154 718.422541,325.491154 C718.422541,329.642154 718.296636,335.113844 718.044822,341.906389 C717.289378,358.510388 711.308875,371.15188 700.103133,379.831243 Z M665.069626,352.283837 C667.524816,349.768079 668.815346,345.931607 668.941253,340.774304 C669.193068,333.478607 669.318973,328.132703 669.318973,324.73643 C669.318973,321.088582 669.193068,315.868464 668.941253,309.075919 C668.815346,303.918616 667.49334,300.082143 664.975196,297.566386 C662.457052,295.050628 659.12056,293.792769 654.965622,293.792769 C650.810684,293.792769 647.474193,295.050628 644.956049,297.566386 C642.437904,300.082143 641.115899,303.918616 640.989991,309.075919 C640.864084,312.472191 640.801131,317.69231 640.801131,324.73643 C640.801131,331.780551 640.864084,337.126456 640.989991,340.774304 C641.115899,345.931607 642.406428,349.768079 644.861619,352.283837 C647.316809,354.799594 650.684777,356.057454 654.965622,356.057454 C659.246468,356.057454 662.614435,354.799594 665.069626,352.283837 Z M840.237163,379.831243 C829.031421,388.510606 813.985734,392.850222 795.099652,392.850222 C776.21357,392.850222 761.167883,388.510606 749.962141,379.831243 C738.756399,371.15188 732.775896,358.510388 732.020453,341.906389 C731.894545,338.510117 731.831593,333.038426 731.831593,325.491154 C731.831593,317.818094 731.894545,312.220617 732.020453,308.698557 C732.398174,297.8808 735.26252,288.572637 740.613577,280.773789 C745.964634,272.974941 753.298619,267.063 762.615753,263.037788 C771.932887,259.012576 782.760745,257 795.099652,257 C807.438559,257 818.266417,259.012576 827.583551,263.037788 C836.900685,267.063 844.23467,272.974941 849.585727,280.773789 C854.936783,288.572637 857.80113,297.8808 858.178851,308.698557 C858.430666,315.742678 858.556571,321.340154 858.556571,325.491154 C858.556571,329.642154 858.430666,335.113844 858.178851,341.906389 C857.423408,358.510388 851.442905,371.15188 840.237163,379.831243 Z M805.203655,352.283837 C807.658846,349.768079 808.949376,345.931607 809.075283,340.774304 C809.327097,333.478607 809.453003,328.132703 809.453003,324.73643 C809.453003,321.088582 809.327097,315.868464 809.075283,309.075919 C808.949376,303.918616 807.62737,300.082143 805.109225,297.566386 C802.591081,295.050628 799.25459,293.792769 795.099652,293.792769 C790.944714,293.792769 787.608223,295.050628 785.090078,297.566386 C782.571934,300.082143 781.249928,303.918616 781.124021,309.075919 C780.998114,312.472191 780.935161,317.69231 780.935161,324.73643 C780.935161,331.780551 780.998114,337.126456 781.124021,340.774304 C781.249928,345.931607 782.540458,349.768079 784.995648,352.283837 C787.450839,354.799594 790.818807,356.057454 795.099652,356.057454 C799.380497,356.057454 802.748465,354.799594 805.203655,352.283837 Z M979.426893,353.793284 C980.434151,354.799586 980.937772,355.994553 980.937772,357.37822 L980.937772,385.86903 C980.937772,387.252697 980.434151,388.447664 979.426893,389.453967 C978.419635,390.46027 977.223535,390.963414 975.838555,390.963414 L880.653177,390.963414 C879.268197,390.963414 878.072097,390.46027 877.064839,389.453967 C876.057581,388.447664 875.55396,387.252697 875.55396,385.86903 L875.55396,263.981192 C875.55396,262.597525 876.057581,261.402559 877.064839,260.396256 C878.072097,259.389953 879.268197,258.886809 880.653177,258.886809 L918.425152,258.886809 C919.810132,258.886809 921.006232,259.389953 922.01349,260.396256 C923.020748,261.402559 923.524369,262.597525 923.524369,263.981192 L923.524369,352.283837 L975.838555,352.283837 C977.223535,352.283837 978.419635,352.786981 979.426893,353.793284 Z M498.967363,456.621608 C509.102894,464.420456 514.170583,475.929874 514.170583,491.150207 C514.170583,506.244751 509.13437,517.47115 499.061793,524.829741 C488.989216,532.188331 475.076677,535.867572 457.32376,535.867572 L444.103568,535.867572 L444.103568,571.905617 C444.103568,573.289283 443.599947,574.48425 442.592689,575.490553 C441.585432,576.496856 440.389331,577 439.004352,577 L400.099217,577 C398.714237,577 397.518137,576.496856 396.510879,575.490553 C395.503621,574.48425 395,573.289283 395,571.905617 L395,450.017778 C395,448.634112 395.503621,447.439145 396.510879,446.432842 C397.518137,445.426539 398.714237,444.923395 400.099217,444.923395 L457.32376,444.923395 C474.95077,444.923395 488.831832,448.82276 498.967363,456.621608 Z M456.37946,500.961612 C458.64579,500.961612 460.660275,500.112556 462.422977,498.41442 C464.185678,496.716284 465.067015,494.169117 465.067015,490.772845 C465.067015,487.879724 464.374536,485.364004 462.989556,483.22561 C461.604577,481.087216 459.401234,480.018036 456.37946,480.018036 L443.159269,480.018036 L443.159269,500.961612 L456.37946,500.961612 Z M604.823325,446.810203 C606.208304,448.068082 607.152594,449.514621 607.656223,451.149863 L649.771976,571.528255 C649.897883,571.905619 649.960836,572.345869 649.960836,572.849021 C649.960836,573.981112 649.551643,574.955953 648.733246,575.773574 C647.914849,576.591196 646.939083,577 645.805918,577 L610.866841,577 C607.089624,577 604.63447,575.427675 603.501305,572.282978 L598.968668,559.830041 L558.363795,559.830041 L553.831158,572.282978 C552.697993,575.427675 550.242839,577 546.465622,577 L511.526545,577 C510.39338,577 509.417614,576.591196 508.599217,575.773574 C507.78082,574.955953 507.371628,573.981112 507.371628,572.849021 C507.371628,572.345869 507.43458,571.905619 507.560487,571.528255 L549.67624,451.149863 C550.179869,449.514621 551.124159,448.068082 552.509138,446.810203 C553.894118,445.552325 555.782698,444.923395 558.174935,444.923395 L599.157528,444.923395 C601.549765,444.923395 603.438345,445.552325 604.823325,446.810203 Z M578.571802,487.942632 L567.995648,523.037273 L589.336815,523.037273 L578.571802,487.942632 Z M782.54047,572.849021 C782.54047,573.981112 782.131278,574.955953 781.312881,575.773574 C780.494484,576.591196 779.518718,577 778.385553,577 L739.669278,577 C737.402948,577 735.608797,576.46541 734.286771,575.396213 C732.964745,574.327016 732.051932,573.163495 731.548303,571.905617 L715.306353,535.867572 L707.563098,535.867572 L707.563098,571.905617 C707.563098,573.289283 707.059477,574.48425 706.052219,575.490553 C705.044962,576.496856 703.848861,577 702.463882,577 L665.447346,577 C664.062366,577 662.866266,576.496856 661.859008,575.490553 C660.85175,574.48425 660.348129,573.289283 660.348129,571.905617 L660.348129,450.017778 C660.348129,448.634112 660.85175,447.439145 661.859008,446.432842 C662.866266,445.426539 664.062366,444.923395 665.447346,444.923395 L721.349869,444.923395 C739.480508,444.923395 753.644858,448.979993 763.843342,457.093311 C774.041826,465.206628 779.140992,476.433027 779.140992,490.772845 C779.140992,498.949057 777.315365,506.150304 773.664056,512.376804 C770.012746,518.603304 765.039486,523.729082 758.744125,527.754294 L781.97389,570.773531 C782.351612,571.528259 782.54047,572.220082 782.54047,572.849021 Z M721.349869,500.018207 C724.119828,500.018207 726.260219,499.106259 727.771105,497.282335 C729.281992,495.458411 730.037424,493.162816 730.037424,490.395483 C730.037424,487.62815 729.313468,485.20677 727.865535,483.13127 C726.417602,481.05577 724.245735,480.018036 721.349869,480.018036 L707.563098,480.018036 L707.563098,500.018207 L721.349869,500.018207 Z M907.754569,446.432842 C908.761827,447.439145 909.265448,448.634112 909.265448,450.017778 L909.265448,480.395397 C909.265448,481.779064 908.761827,482.974031 907.754569,483.980334 C906.747311,484.986637 905.551211,485.489781 904.166232,485.489781 L872.815492,485.489781 L872.815492,571.905617 C872.815492,573.289283 872.31187,574.48425 871.304613,575.490553 C870.297355,576.496856 869.101254,577 867.716275,577 L829.944299,577 C828.55932,577 827.363219,576.496856 826.355962,575.490553 C825.348704,574.48425 824.845083,573.289283 824.845083,571.905617 L824.845083,485.489781 L793.494343,485.489781 C792.109364,485.489781 790.913263,484.986637 789.906005,483.980334 C788.898748,482.974031 788.395126,481.779064 788.395126,480.395397 L788.395126,450.017778 C788.395126,448.634112 788.898748,447.439145 789.906005,446.432842 C790.913263,445.426539 792.109364,444.923395 793.494343,444.923395 L904.166232,444.923395 C905.551211,444.923395 906.747311,445.426539 907.754569,446.432842 Z M957.424717,575.490553 C956.417459,574.48425 955.913838,573.289283 955.913838,571.905617 L955.913838,534.735486 L913.420366,450.772502 C913.168551,450.26935 913.042646,449.703313 913.042646,449.074374 C913.042646,447.942283 913.451838,446.967442 914.270235,446.14982 C915.088632,445.332199 916.064398,444.923395 917.197563,444.923395 L952.70322,444.923395 C954.843643,444.923395 956.574841,445.457985 957.896867,446.527182 C959.218893,447.596379 960.131706,448.634113 960.635335,449.640416 L979.521323,487.56527 L998.407311,449.640416 C998.91094,448.634113 999.823753,447.596379 1001.14578,446.527182 C1002.4678,445.457985 1004.199,444.923395 1006.33943,444.923395 L1041.84508,444.923395 C1042.97825,444.923395 1043.95401,445.332199 1044.77241,446.14982 C1045.59081,446.967442 1046,447.942283 1046,449.074374 C1046,449.703313 1045.87409,450.26935 1045.62228,450.772502 L1003.12881,534.735486 L1003.12881,571.905617 C1003.12881,573.289283 1002.62519,574.48425 1001.61793,575.490553 C1000.61067,576.496856 999.41457,577 998.029591,577 L961.013055,577 C959.628075,577 958.431975,576.496856 957.424717,575.490553 Z" id="path-1"></path>
        <filter x="-0.8%" y="-1.6%" width="102.9%" height="106.2%" filterUnits="objectBoundingBox" id="filter-2">
            <feOffset dx="9" dy="10" in="SourceAlpha" result="shadowOffsetOuter1"></feOffset>
            <feComposite in="shadowOffsetOuter1" in2="SourceAlpha" operator="out" result="shadowOffsetOuter1"></feComposite>
            <feColorMatrix values="0 0 0 0 0   0 0 0 0 0   0 0 0 0 0  0 0 0 1 0" type="matrix" in="shadowOffsetOuter1"></feColorMatrix>
        </filter>
    </defs>
    <g id="Page-1" stroke="none" stroke-width="1" fill="none" fill-rule="evenodd">
        <g id="FINAL-DRAFT-12.10.-Copy" transform="translate(-395.000000, -257.000000)">
            <g id="POOL-PARTY">
                <use fill="black" fill-opacity="1" filter="url(#filter-2)" xlink:href="#path-1"></use>
                <use fill="#F6E300" fill-rule="evenodd" xlink:href="#path-1"></use>
            </g>
        </g>
    </g>
</svg>
