<svg width="46px" height="43px" viewBox="0 0 46 43" version="1.1" xmlns="http://www.w3.org/2000/svg" xmlns:xlink="http://www.w3.org/1999/xlink">
    <!-- Generator: Sketch 47.1 (45422) - http://www.bohemiancoding.com/sketch -->
    <desc>Created with Sketch.</desc>
    <defs>
        <polygon id="path-1" points="0 0 46 0 46 32.25 2.00113765e-15 32.25"></polygon>
        <polygon id="path-3" points="2.37052846 0.0041758191 2.37052846 2.66389839 0.0207454893 2.66389839 0.0207454893 0.0041758191 2.37052846 0.0041758191"></polygon>
        <polygon id="path-5" points="2.37052846 0.0041758191 2.37052846 2.66389839 0.0207454893 2.66389839 0.0207454893 0.0041758191 2.37052846 0.0041758191"></polygon>
        <polygon id="path-7" points="2.37052846 0.0041758191 2.37052846 2.66389839 0.0207454893 2.66389839 0.0207454893 0.0041758191 2.37052846 0.0041758191"></polygon>
    </defs>
    <g id="Page-1" stroke="none" stroke-width="1" fill="none" fill-rule="evenodd">
        <g id="FINAL-DRAFT-12.10.-Copy" transform="translate(-1350.000000, -28.000000)">
            <g id="Weather" transform="translate(1245.000000, 18.000000)">
                <g id="Weather-Icon" transform="translate(105.000000, 10.000000)">
                    <g id="Page-1">
                        <mask id="mask-2" fill="white">
                            <use xlink:href="#path-1"></use>
                        </mask>
                        <g id="Clip-2"></g>
                        <path d="M35.9191116,12.8609786 C36.0169229,12.4712215 36.0169229,12.0815558 36.0169229,11.6917987 C36.0169229,5.26130944 30.1445786,0 22.9999541,0 C15.8553297,0 9.98289361,5.26130944 9.98289361,11.6917987 C9.98289361,12.0815558 10.0807966,12.4712215 10.0807966,12.8609786 C4.30635526,14.0302498 0,18.706878 0,24.2605737 C0,26.1117143 0.489331442,27.768022 1.37018309,29.3270503 C2.34893773,31.0807288 4.30635526,32.1524466 6.45957876,32.1524466 C7.53614464,32.1524466 8.41699629,31.275653 8.41699629,30.2038439 C8.41699629,29.1321261 7.53614464,28.2552412 6.45957876,28.2552412 C5.77444134,28.2552412 5.08930392,27.9629462 4.7956867,27.4758184 C4.20845227,26.5014714 3.91483505,25.3322915 3.91483505,24.1631116 C3.91483505,19.97352 7.63395587,16.4660717 12.5276373,16.2711475 C13.1148718,16.1737767 13.7021062,15.8813904 13.9957234,15.3942626 C14.2893406,14.9070434 14.3872436,14.3225448 14.1914376,13.7379549 C13.8979122,12.9584407 13.8000092,12.27648 13.8000092,11.4969659 C13.8000092,7.11254135 17.9106502,3.60500173 22.9999541,3.60500173 C28.0893498,3.60500173 32.1999908,7.11254135 32.1999908,11.4969659 C32.1999908,12.27648 32.0041848,13.0559028 31.8084706,13.7379549 C31.6127564,14.3225448 31.7106594,14.9070434 32.0042766,15.3942626 C32.2978938,15.9788525 32.8851282,16.2711475 33.4723627,16.2711475 C38.2681411,16.5634425 42.0850732,19.97352 42.0850732,24.1631116 C42.0850732,25.3322915 41.791456,26.4041006 41.3021245,27.3783563 C41.0085073,27.9629462 40.3233699,28.3527033 39.5404212,28.3527033 C38.4638554,28.3527033 37.5830037,29.2294969 37.5830037,30.301306 C37.5830037,31.3730238 38.4638554,32.25 39.5404212,32.25 C41.791456,32.25 43.8467765,30.9832667 44.8255311,29.1321261 C45.6085715,27.6706513 46,26.0142522 46,24.2605737 C45.9999082,18.706878 41.693553,14.0301585 35.9191116,12.8609786" id="Fill-1" fill="#000000" mask="url(#mask-2)"></path>
                    </g>
                    <g id="Page-1-Copy-22" transform="translate(27.058824, 32.250000)">
                        <path d="M5.10711696,6.34102429 C4.92862948,6.47219046 4.75007706,6.60335664 4.57158958,6.73452281 C4.59555679,6.51326138 4.61952399,6.29186957 4.6434912,6.07060813 C4.65485776,5.96590989 4.57373299,5.82248763 4.47734456,5.7798521 C4.27365579,5.68969165 4.06996703,5.5995312 3.86627827,5.50937075 C4.06996703,5.41921031 4.27365579,5.32911505 4.47734456,5.2389546 C4.57373299,5.19625388 4.65485776,5.05276643 4.6434912,4.94819857 C4.61952399,4.72687194 4.59555679,4.50554532 4.57158958,4.2842187 C4.75007706,4.41538487 4.92862948,4.54655105 5.10711696,4.67771722 C5.15738963,4.71468105 5.2166906,4.72895808 5.27644623,4.72661118 C5.33620186,4.72895808 5.39550283,4.71468105 5.44577551,4.67771722 C5.62432793,4.54655105 5.80288036,4.41538487 5.98136783,4.2842187 C5.95740063,4.50554532 5.93343342,4.72687194 5.90946622,4.94819857 C5.89809966,5.05276643 5.97922442,5.19625388 6.07554791,5.2389546 C6.27930162,5.32911505 6.48299038,5.41921031 6.68667915,5.50937075 C6.48299038,5.5995312 6.27930162,5.68969165 6.07554791,5.7798521 C5.97922442,5.82248763 5.89809966,5.96590989 5.90946622,6.07060813 C5.93343342,6.29186957 5.95740063,6.51326138 5.98136783,6.73452281 C5.80288036,6.60335664 5.62432793,6.47219046 5.44577551,6.34102429 C5.35874013,6.27713619 5.19415233,6.27713619 5.10711696,6.34102429 M7.68225994,5.21861472 C7.32242711,5.05941601 6.96265923,4.90015211 6.60282641,4.74088821 C6.64530487,4.34901948 6.68778333,3.95721594 6.73019683,3.56534721 C6.75663221,3.32179014 6.42115629,3.13077777 6.22539165,3.27459118 C5.90914146,3.50700043 5.59282632,3.73940968 5.27644623,3.97181894 C4.96013109,3.73940968 4.64388091,3.50700043 4.32756577,3.27459118 C4.13180112,3.13077777 3.79632521,3.32179014 3.82276058,3.56534721 C3.86517409,3.95721594 3.90765255,4.34901948 3.95013101,4.74088821 C3.59029818,4.90015211 3.23046535,5.05941601 2.87063253,5.21861472 C2.65096563,5.3158159 2.65096563,5.70292561 2.87063253,5.80012679 C3.23046535,5.95939069 3.59029818,6.1185894 3.95013101,6.2778533 C3.90765255,6.66972203 3.86517409,7.06159076 3.82276058,7.4533943 C3.79632521,7.69701656 4.13180112,7.88796374 4.32756577,7.74415033 C4.64388091,7.51174108 4.96013109,7.27933183 5.27644623,7.04692257 C5.59282632,7.27933183 5.90914146,7.51174108 6.22539165,7.74415033 C6.42115629,7.88796374 6.75663221,7.69701656 6.73019683,7.4533943 C6.68778333,7.06159076 6.64530487,6.66972203 6.60282641,6.2778533 C6.96265923,6.1185894 7.32242711,5.95939069 7.68225994,5.80012679 C7.90199179,5.70292561 7.90199179,5.3158159 7.68225994,5.21861472" id="Fill-1" fill="#000000"></path>
                        <path d="M5.68235294,9.88083446 L5.68235294,1.13791554 C5.68235294,0.95469171 5.56120714,0.80625 5.41179055,0.80625 C5.26232227,0.80625 5.14117647,0.95469171 5.14117647,1.13791554 L5.14117647,9.88083446 C5.14117647,10.0639949 5.26232227,10.2125 5.41179055,10.2125 C5.56120714,10.2125 5.68235294,10.0639949 5.68235294,9.88083446" id="Fill-3" fill="#000000"></path>
                        <path d="M6.66863109,0.100189837 C6.54059401,-0.0333966124 6.33294092,-0.0333966124 6.20490384,0.100189837 L5.2764471,1.06882231 L4.34805299,0.100189837 C4.22001591,-0.0333966124 4.01236282,-0.0333966124 3.8842631,0.100189837 C3.75622602,0.233841642 3.75622602,0.450429458 3.8842631,0.584081263 L5.03183614,1.7813923 C5.09911198,1.85158401 5.18831199,1.88452313 5.2764471,1.88099394 C5.36458221,1.88452313 5.45378221,1.85158401 5.52112069,1.7813923 L6.66863109,0.584081263 C6.79673081,0.450429458 6.79673081,0.233841642 6.66863109,0.100189837" id="Fill-5" fill="#000000"></path>
                        <path d="M6.66863109,1.71268984 C6.54059401,1.57910339 6.33294092,1.57910339 6.20490384,1.71268984 L5.2764471,2.68132231 L4.34805299,1.71268984 C4.22001591,1.57910339 4.01236282,1.57910339 3.8842631,1.71268984 C3.75622602,1.84634164 3.75622602,2.06292946 3.8842631,2.19658126 L5.03183614,3.3938923 C5.09911198,3.46408401 5.18831199,3.49702313 5.2764471,3.49349394 C5.36458221,3.49702313 5.45378221,3.46408401 5.52112069,3.3938923 L6.66863109,2.19658126 C6.79673081,2.06292946 6.79673081,1.84634164 6.66863109,1.71268984" id="Fill-7" fill="#000000"></path>
                        <path d="M3.8842631,10.6497607 C4.01230018,10.7834131 4.21995327,10.7834131 4.34805299,10.6497607 L5.2764471,9.68112431 L6.2048412,10.6497607 C6.33287828,10.7834131 6.54059401,10.7834131 6.66863109,10.6497607 C6.79673081,10.5161737 6.79673081,10.2995197 6.66863109,10.1659327 L5.52105805,8.96855141 C5.45378221,8.89842477 5.36451957,8.86542015 5.2764471,8.86901472 C5.18831199,8.86542015 5.09911198,8.89842477 5.03183614,8.96855141 L3.8842631,10.1659327 C3.75622602,10.2995197 3.75622602,10.5161737 3.8842631,10.6497607" id="Fill-9" fill="#000000"></path>
                        <path d="M3.8842631,9.30601028 C4.01230018,9.43966324 4.21995327,9.43966324 4.34805299,9.30601028 L5.2764471,8.33743475 L6.2048412,9.30601028 C6.33287828,9.43966324 6.54059401,9.43966324 6.66863109,9.30601028 C6.79673081,9.17242267 6.79673081,8.95576762 6.66863109,8.82218001 L5.52105805,7.62479322 C5.45378221,7.55466626 5.36451957,7.52172685 5.2764471,7.52525607 C5.18831199,7.52172685 5.09911198,7.55466626 5.03183614,7.62479322 L3.8842631,8.82218001 C3.75622602,8.95576762 3.75622602,9.17242267 3.8842631,9.30601028" id="Fill-11" fill="#000000"></path>
                        <path d="M9.57219575,7.19906946 L1.8597936,2.99901044 C1.69820029,2.91099054 1.4915622,2.96321812 1.39824594,3.11563986 C1.30499421,3.2680616 1.3602999,3.46297151 1.52189321,3.55093054 L9.2343599,7.75098956 C9.39595321,7.83900946 9.6025913,7.78678188 9.69584303,7.63436014 C9.7891593,7.4819384 9.73378907,7.28702849 9.57219575,7.19906946" id="Fill-13" fill="#000000"></path>
                        <path d="M1.52829763,1.62386213 C1.33777692,1.67110007 1.22474692,1.85241041 1.27577072,2.02879487 L1.64582974,3.30737696 L0.264776318,3.64997835 C0.0742556126,3.6972163 -0.038774394,3.87852664 0.012249411,4.05484795 C0.0632732161,4.23123241 0.259114585,4.33593897 0.449635291,4.28863787 L2.15668171,3.8652015 C2.25675112,3.84038263 2.3351286,3.77836704 2.37987675,3.69974239 C2.43110519,3.62452796 2.44993216,3.5306836 2.4231242,3.43803913 L1.96568351,1.85765205 C1.9146597,1.68126759 1.71881833,1.57656103 1.52829763,1.62386213" id="Fill-15" fill="#000000"></path>
                        <path d="M2.88123881,2.16134045 C2.6907181,2.20864119 2.57768809,2.38988703 2.6287119,2.56627018 L2.99877091,3.84484278 L1.61771749,4.18744162 C1.42719679,4.23467922 1.31416678,4.41598821 1.36519059,4.59237136 C1.41621439,4.76875451 1.61205576,4.87339715 1.80257647,4.82615955 L3.50962289,4.40266317 C3.6096923,4.37790764 3.68806978,4.31589251 3.73281793,4.23720529 C3.78404637,4.16205458 3.80287334,4.06814776 3.77606538,3.97556713 L3.31862468,2.39512864 C3.26760088,2.21874549 3.07175951,2.11410285 2.88123881,2.16134045" id="Fill-17" fill="#000000"></path>
                        <g id="Group-21" transform="translate(8.388235, 6.718750)">
                            <mask id="mask-4" fill="white">
                                <use xlink:href="#path-3"></use>
                            </mask>
                            <g id="Clip-20"></g>
                            <path d="M0.895898633,2.652675 C1.07973043,2.605925 1.18879211,2.4264875 1.13955968,2.251925 L0.782427091,0.98655 L2.1149937,0.6474875 C2.2988255,0.6007375 2.407953,0.4213 2.35872057,0.2467375 C2.30948814,0.072175 2.12045666,-0.0313875 1.93669068,0.015425 L0.289576216,0.4344875 C0.192954277,0.4589875 0.11739434,0.520425 0.0742172337,0.5982375 C0.024787345,0.672675 0.00662136725,0.76555 0.0324881399,0.857175 L0.473868744,2.4213 C0.523101176,2.5958625 0.712066836,2.699425 0.895898633,2.652675" id="Fill-19" fill="#000000" mask="url(#mask-4)"></path>
                        </g>
                        <path d="M7.94226951,8.58863334 C8.13279053,8.54139509 8.24582073,8.36014675 8.19479684,8.18376116 L7.82466899,6.90517092 L9.20572475,6.56256735 C9.39624578,6.51526595 9.5094124,6.3340176 9.4583203,6.15763202 C9.40729641,5.98124644 9.21138649,5.87660236 9.02093368,5.9238406 L7.31388436,6.34727968 C7.21374656,6.3720987 7.13543716,6.43411469 7.09068894,6.51280299 C7.03946041,6.58795475 7.02063341,6.68186286 7.04750963,6.77444477 L7.50488288,8.35490507 C7.55590677,8.53129065 7.75174848,8.63593473 7.94226951,8.58863334" id="Fill-22" fill="#000000"></path>
                        <path d="M9.23433079,2.99901044 L1.52192204,7.19906946 C1.36032859,7.28702849 1.30495831,7.4819384 1.39827465,7.63436014 C1.491591,7.78678188 1.69816473,7.83900946 1.85975818,7.75098956 L9.57216693,3.55093054 C9.73376038,3.46297151 9.78919519,3.2680616 9.69581432,3.11563986 C9.6025625,2.96321812 9.39592424,2.91099054 9.23433079,2.99901044" id="Fill-24" fill="#000000"></path>
                        <g id="Group-28" transform="translate(0.000000, 6.718750)" fill="#000000">
                            <path d="M0.0121426471,0.24673125 C-0.0384573529,0.42129375 0.0736338235,0.60073125 0.262572059,0.64748125 L1.63215441,0.98654375 L1.26516912,2.25191875 C1.21456912,2.42648125 1.32666029,2.60591875 1.51559853,2.65266875 C1.70453676,2.69941875 1.89875147,2.59585625 1.94935147,2.42129375 L2.40299265,0.85723125 C2.42957794,0.76554375 2.41090735,0.67266875 2.36010441,0.59823125 C2.31572794,0.52041875 2.23800147,0.45898125 2.13876324,0.43448125 L0.445895588,0.01541875 C0.256957353,-0.03139375 0.0628102941,0.07216875 0.0121426471,0.24673125" id="Fill-26"></path>
                        </g>
                        <path d="M1.36519059,6.15763202 C1.31416678,6.3340176 1.42719679,6.51526595 1.61771749,6.56256735 L2.99877091,6.90517092 L2.6287119,8.18376116 C2.57768809,8.36014675 2.6907181,8.54139509 2.88123881,8.58863334 C3.07175951,8.63593473 3.26760088,8.53129065 3.31862468,8.35490507 L3.77606538,6.77450792 C3.80287334,6.68186286 3.78404637,6.58795475 3.73281793,6.51280299 C3.68806978,6.43411469 3.6096923,6.3720987 3.50962289,6.34727968 L1.80257647,5.9238406 C1.61205576,5.87660236 1.41628261,5.98124644 1.36519059,6.15763202" id="Fill-29" fill="#000000"></path>
                        <path d="M10.8112797,4.05484795 C10.8623046,3.87852664 10.7492722,3.6972163 10.5587474,3.64997835 L9.17766398,3.30737696 L9.54779923,2.02879487 C9.59882414,1.85241041 9.48572347,1.67110007 9.29519863,1.62386213 C9.1046738,1.57656103 8.90882818,1.68126759 8.85780327,1.85765205 L8.40042087,3.43797598 C8.37361233,3.5306836 8.39237148,3.62452796 8.44360104,3.69974239 C8.48835016,3.77836704 8.56672934,3.84038263 8.66680092,3.8652015 L10.3738844,4.28863787 C10.5644092,4.33593897 10.7602548,4.23123241 10.8112797,4.05484795" id="Fill-31" fill="#000000"></path>
                        <path d="M9.45831535,4.59237136 C9.50940799,4.41598821 9.3963084,4.23467922 9.20578538,4.18744162 L7.82478345,3.84484278 L8.19484695,2.56627018 C8.24587137,2.38988703 8.13277178,2.20864119 7.94224877,2.16134045 C7.75172576,2.11410285 7.55588202,2.21874549 7.50485759,2.39512864 L7.04747958,3.97550398 C7.02067129,4.06814776 7.03943027,4.16205458 7.09065934,4.23720529 C7.13540803,4.31589251 7.21378645,4.37790764 7.31385708,4.40266317 L9.02092417,4.82615955 C9.21144718,4.87339715 9.40729093,4.76875451 9.45831535,4.59237136" id="Fill-33" fill="#000000"></path>
                    </g>
                    <g id="Page-1-Copy-23" transform="translate(18.039216, 21.500000)">
                        <path d="M5.10711696,6.34102429 C4.92862948,6.47219046 4.75007706,6.60335664 4.57158958,6.73452281 C4.59555679,6.51326138 4.61952399,6.29186957 4.6434912,6.07060813 C4.65485776,5.96590989 4.57373299,5.82248763 4.47734456,5.7798521 C4.27365579,5.68969165 4.06996703,5.5995312 3.86627827,5.50937075 C4.06996703,5.41921031 4.27365579,5.32911505 4.47734456,5.2389546 C4.57373299,5.19625388 4.65485776,5.05276643 4.6434912,4.94819857 C4.61952399,4.72687194 4.59555679,4.50554532 4.57158958,4.2842187 C4.75007706,4.41538487 4.92862948,4.54655105 5.10711696,4.67771722 C5.15738963,4.71468105 5.2166906,4.72895808 5.27644623,4.72661118 C5.33620186,4.72895808 5.39550283,4.71468105 5.44577551,4.67771722 C5.62432793,4.54655105 5.80288036,4.41538487 5.98136783,4.2842187 C5.95740063,4.50554532 5.93343342,4.72687194 5.90946622,4.94819857 C5.89809966,5.05276643 5.97922442,5.19625388 6.07554791,5.2389546 C6.27930162,5.32911505 6.48299038,5.41921031 6.68667915,5.50937075 C6.48299038,5.5995312 6.27930162,5.68969165 6.07554791,5.7798521 C5.97922442,5.82248763 5.89809966,5.96590989 5.90946622,6.07060813 C5.93343342,6.29186957 5.95740063,6.51326138 5.98136783,6.73452281 C5.80288036,6.60335664 5.62432793,6.47219046 5.44577551,6.34102429 C5.35874013,6.27713619 5.19415233,6.27713619 5.10711696,6.34102429 M7.68225994,5.21861472 C7.32242711,5.05941601 6.96265923,4.90015211 6.60282641,4.74088821 C6.64530487,4.34901948 6.68778333,3.95721594 6.73019683,3.56534721 C6.75663221,3.32179014 6.42115629,3.13077777 6.22539165,3.27459118 C5.90914146,3.50700043 5.59282632,3.73940968 5.27644623,3.97181894 C4.96013109,3.73940968 4.64388091,3.50700043 4.32756577,3.27459118 C4.13180112,3.13077777 3.79632521,3.32179014 3.82276058,3.56534721 C3.86517409,3.95721594 3.90765255,4.34901948 3.95013101,4.74088821 C3.59029818,4.90015211 3.23046535,5.05941601 2.87063253,5.21861472 C2.65096563,5.3158159 2.65096563,5.70292561 2.87063253,5.80012679 C3.23046535,5.95939069 3.59029818,6.1185894 3.95013101,6.2778533 C3.90765255,6.66972203 3.86517409,7.06159076 3.82276058,7.4533943 C3.79632521,7.69701656 4.13180112,7.88796374 4.32756577,7.74415033 C4.64388091,7.51174108 4.96013109,7.27933183 5.27644623,7.04692257 C5.59282632,7.27933183 5.90914146,7.51174108 6.22539165,7.74415033 C6.42115629,7.88796374 6.75663221,7.69701656 6.73019683,7.4533943 C6.68778333,7.06159076 6.64530487,6.66972203 6.60282641,6.2778533 C6.96265923,6.1185894 7.32242711,5.95939069 7.68225994,5.80012679 C7.90199179,5.70292561 7.90199179,5.3158159 7.68225994,5.21861472" id="Fill-1" fill="#000000"></path>
                        <path d="M5.68235294,9.88083446 L5.68235294,1.13791554 C5.68235294,0.95469171 5.56120714,0.80625 5.41179055,0.80625 C5.26232227,0.80625 5.14117647,0.95469171 5.14117647,1.13791554 L5.14117647,9.88083446 C5.14117647,10.0639949 5.26232227,10.2125 5.41179055,10.2125 C5.56120714,10.2125 5.68235294,10.0639949 5.68235294,9.88083446" id="Fill-3" fill="#000000"></path>
                        <path d="M6.66863109,0.100189837 C6.54059401,-0.0333966124 6.33294092,-0.0333966124 6.20490384,0.100189837 L5.2764471,1.06882231 L4.34805299,0.100189837 C4.22001591,-0.0333966124 4.01236282,-0.0333966124 3.8842631,0.100189837 C3.75622602,0.233841642 3.75622602,0.450429458 3.8842631,0.584081263 L5.03183614,1.7813923 C5.09911198,1.85158401 5.18831199,1.88452313 5.2764471,1.88099394 C5.36458221,1.88452313 5.45378221,1.85158401 5.52112069,1.7813923 L6.66863109,0.584081263 C6.79673081,0.450429458 6.79673081,0.233841642 6.66863109,0.100189837" id="Fill-5" fill="#000000"></path>
                        <path d="M6.66863109,1.71268984 C6.54059401,1.57910339 6.33294092,1.57910339 6.20490384,1.71268984 L5.2764471,2.68132231 L4.34805299,1.71268984 C4.22001591,1.57910339 4.01236282,1.57910339 3.8842631,1.71268984 C3.75622602,1.84634164 3.75622602,2.06292946 3.8842631,2.19658126 L5.03183614,3.3938923 C5.09911198,3.46408401 5.18831199,3.49702313 5.2764471,3.49349394 C5.36458221,3.49702313 5.45378221,3.46408401 5.52112069,3.3938923 L6.66863109,2.19658126 C6.79673081,2.06292946 6.79673081,1.84634164 6.66863109,1.71268984" id="Fill-7" fill="#000000"></path>
                        <path d="M3.8842631,10.6497607 C4.01230018,10.7834131 4.21995327,10.7834131 4.34805299,10.6497607 L5.2764471,9.68112431 L6.2048412,10.6497607 C6.33287828,10.7834131 6.54059401,10.7834131 6.66863109,10.6497607 C6.79673081,10.5161737 6.79673081,10.2995197 6.66863109,10.1659327 L5.52105805,8.96855141 C5.45378221,8.89842477 5.36451957,8.86542015 5.2764471,8.86901472 C5.18831199,8.86542015 5.09911198,8.89842477 5.03183614,8.96855141 L3.8842631,10.1659327 C3.75622602,10.2995197 3.75622602,10.5161737 3.8842631,10.6497607" id="Fill-9" fill="#000000"></path>
                        <path d="M3.8842631,9.30601028 C4.01230018,9.43966324 4.21995327,9.43966324 4.34805299,9.30601028 L5.2764471,8.33743475 L6.2048412,9.30601028 C6.33287828,9.43966324 6.54059401,9.43966324 6.66863109,9.30601028 C6.79673081,9.17242267 6.79673081,8.95576762 6.66863109,8.82218001 L5.52105805,7.62479322 C5.45378221,7.55466626 5.36451957,7.52172685 5.2764471,7.52525607 C5.18831199,7.52172685 5.09911198,7.55466626 5.03183614,7.62479322 L3.8842631,8.82218001 C3.75622602,8.95576762 3.75622602,9.17242267 3.8842631,9.30601028" id="Fill-11" fill="#000000"></path>
                        <path d="M9.57219575,7.19906946 L1.8597936,2.99901044 C1.69820029,2.91099054 1.4915622,2.96321812 1.39824594,3.11563986 C1.30499421,3.2680616 1.3602999,3.46297151 1.52189321,3.55093054 L9.2343599,7.75098956 C9.39595321,7.83900946 9.6025913,7.78678188 9.69584303,7.63436014 C9.7891593,7.4819384 9.73378907,7.28702849 9.57219575,7.19906946" id="Fill-13" fill="#000000"></path>
                        <path d="M1.52829763,1.62386213 C1.33777692,1.67110007 1.22474692,1.85241041 1.27577072,2.02879487 L1.64582974,3.30737696 L0.264776318,3.64997835 C0.0742556126,3.6972163 -0.038774394,3.87852664 0.012249411,4.05484795 C0.0632732161,4.23123241 0.259114585,4.33593897 0.449635291,4.28863787 L2.15668171,3.8652015 C2.25675112,3.84038263 2.3351286,3.77836704 2.37987675,3.69974239 C2.43110519,3.62452796 2.44993216,3.5306836 2.4231242,3.43803913 L1.96568351,1.85765205 C1.9146597,1.68126759 1.71881833,1.57656103 1.52829763,1.62386213" id="Fill-15" fill="#000000"></path>
                        <path d="M2.88123881,2.16134045 C2.6907181,2.20864119 2.57768809,2.38988703 2.6287119,2.56627018 L2.99877091,3.84484278 L1.61771749,4.18744162 C1.42719679,4.23467922 1.31416678,4.41598821 1.36519059,4.59237136 C1.41621439,4.76875451 1.61205576,4.87339715 1.80257647,4.82615955 L3.50962289,4.40266317 C3.6096923,4.37790764 3.68806978,4.31589251 3.73281793,4.23720529 C3.78404637,4.16205458 3.80287334,4.06814776 3.77606538,3.97556713 L3.31862468,2.39512864 C3.26760088,2.21874549 3.07175951,2.11410285 2.88123881,2.16134045" id="Fill-17" fill="#000000"></path>
                        <g id="Group-21" transform="translate(8.388235, 6.718750)">
                            <mask id="mask-6" fill="white">
                                <use xlink:href="#path-5"></use>
                            </mask>
                            <g id="Clip-20"></g>
                            <path d="M0.895898633,2.652675 C1.07973043,2.605925 1.18879211,2.4264875 1.13955968,2.251925 L0.782427091,0.98655 L2.1149937,0.6474875 C2.2988255,0.6007375 2.407953,0.4213 2.35872057,0.2467375 C2.30948814,0.072175 2.12045666,-0.0313875 1.93669068,0.015425 L0.289576216,0.4344875 C0.192954277,0.4589875 0.11739434,0.520425 0.0742172337,0.5982375 C0.024787345,0.672675 0.00662136725,0.76555 0.0324881399,0.857175 L0.473868744,2.4213 C0.523101176,2.5958625 0.712066836,2.699425 0.895898633,2.652675" id="Fill-19" fill="#000000" mask="url(#mask-6)"></path>
                        </g>
                        <path d="M7.94226951,8.58863334 C8.13279053,8.54139509 8.24582073,8.36014675 8.19479684,8.18376116 L7.82466899,6.90517092 L9.20572475,6.56256735 C9.39624578,6.51526595 9.5094124,6.3340176 9.4583203,6.15763202 C9.40729641,5.98124644 9.21138649,5.87660236 9.02093368,5.9238406 L7.31388436,6.34727968 C7.21374656,6.3720987 7.13543716,6.43411469 7.09068894,6.51280299 C7.03946041,6.58795475 7.02063341,6.68186286 7.04750963,6.77444477 L7.50488288,8.35490507 C7.55590677,8.53129065 7.75174848,8.63593473 7.94226951,8.58863334" id="Fill-22" fill="#000000"></path>
                        <path d="M9.23433079,2.99901044 L1.52192204,7.19906946 C1.36032859,7.28702849 1.30495831,7.4819384 1.39827465,7.63436014 C1.491591,7.78678188 1.69816473,7.83900946 1.85975818,7.75098956 L9.57216693,3.55093054 C9.73376038,3.46297151 9.78919519,3.2680616 9.69581432,3.11563986 C9.6025625,2.96321812 9.39592424,2.91099054 9.23433079,2.99901044" id="Fill-24" fill="#000000"></path>
                        <g id="Group-28" transform="translate(0.000000, 6.718750)" fill="#000000">
                            <path d="M0.0121426471,0.24673125 C-0.0384573529,0.42129375 0.0736338235,0.60073125 0.262572059,0.64748125 L1.63215441,0.98654375 L1.26516912,2.25191875 C1.21456912,2.42648125 1.32666029,2.60591875 1.51559853,2.65266875 C1.70453676,2.69941875 1.89875147,2.59585625 1.94935147,2.42129375 L2.40299265,0.85723125 C2.42957794,0.76554375 2.41090735,0.67266875 2.36010441,0.59823125 C2.31572794,0.52041875 2.23800147,0.45898125 2.13876324,0.43448125 L0.445895588,0.01541875 C0.256957353,-0.03139375 0.0628102941,0.07216875 0.0121426471,0.24673125" id="Fill-26"></path>
                        </g>
                        <path d="M1.36519059,6.15763202 C1.31416678,6.3340176 1.42719679,6.51526595 1.61771749,6.56256735 L2.99877091,6.90517092 L2.6287119,8.18376116 C2.57768809,8.36014675 2.6907181,8.54139509 2.88123881,8.58863334 C3.07175951,8.63593473 3.26760088,8.53129065 3.31862468,8.35490507 L3.77606538,6.77450792 C3.80287334,6.68186286 3.78404637,6.58795475 3.73281793,6.51280299 C3.68806978,6.43411469 3.6096923,6.3720987 3.50962289,6.34727968 L1.80257647,5.9238406 C1.61205576,5.87660236 1.41628261,5.98124644 1.36519059,6.15763202" id="Fill-29" fill="#000000"></path>
                        <path d="M10.8112797,4.05484795 C10.8623046,3.87852664 10.7492722,3.6972163 10.5587474,3.64997835 L9.17766398,3.30737696 L9.54779923,2.02879487 C9.59882414,1.85241041 9.48572347,1.67110007 9.29519863,1.62386213 C9.1046738,1.57656103 8.90882818,1.68126759 8.85780327,1.85765205 L8.40042087,3.43797598 C8.37361233,3.5306836 8.39237148,3.62452796 8.44360104,3.69974239 C8.48835016,3.77836704 8.56672934,3.84038263 8.66680092,3.8652015 L10.3738844,4.28863787 C10.5644092,4.33593897 10.7602548,4.23123241 10.8112797,4.05484795" id="Fill-31" fill="#000000"></path>
                        <path d="M9.45831535,4.59237136 C9.50940799,4.41598821 9.3963084,4.23467922 9.20578538,4.18744162 L7.82478345,3.84484278 L8.19484695,2.56627018 C8.24587137,2.38988703 8.13277178,2.20864119 7.94224877,2.16134045 C7.75172576,2.11410285 7.55588202,2.21874549 7.50485759,2.39512864 L7.04747958,3.97550398 C7.02067129,4.06814776 7.03943027,4.16205458 7.09065934,4.23720529 C7.13540803,4.31589251 7.21378645,4.37790764 7.31385708,4.40266317 L9.02092417,4.82615955 C9.21144718,4.87339715 9.40729093,4.76875451 9.45831535,4.59237136" id="Fill-33" fill="#000000"></path>
                    </g>
                    <g id="Page-1-Copy-24" transform="translate(8.117647, 32.250000)">
                        <path d="M5.10711696,6.34102429 C4.92862948,6.47219046 4.75007706,6.60335664 4.57158958,6.73452281 C4.59555679,6.51326138 4.61952399,6.29186957 4.6434912,6.07060813 C4.65485776,5.96590989 4.57373299,5.82248763 4.47734456,5.7798521 C4.27365579,5.68969165 4.06996703,5.5995312 3.86627827,5.50937075 C4.06996703,5.41921031 4.27365579,5.32911505 4.47734456,5.2389546 C4.57373299,5.19625388 4.65485776,5.05276643 4.6434912,4.94819857 C4.61952399,4.72687194 4.59555679,4.50554532 4.57158958,4.2842187 C4.75007706,4.41538487 4.92862948,4.54655105 5.10711696,4.67771722 C5.15738963,4.71468105 5.2166906,4.72895808 5.27644623,4.72661118 C5.33620186,4.72895808 5.39550283,4.71468105 5.44577551,4.67771722 C5.62432793,4.54655105 5.80288036,4.41538487 5.98136783,4.2842187 C5.95740063,4.50554532 5.93343342,4.72687194 5.90946622,4.94819857 C5.89809966,5.05276643 5.97922442,5.19625388 6.07554791,5.2389546 C6.27930162,5.32911505 6.48299038,5.41921031 6.68667915,5.50937075 C6.48299038,5.5995312 6.27930162,5.68969165 6.07554791,5.7798521 C5.97922442,5.82248763 5.89809966,5.96590989 5.90946622,6.07060813 C5.93343342,6.29186957 5.95740063,6.51326138 5.98136783,6.73452281 C5.80288036,6.60335664 5.62432793,6.47219046 5.44577551,6.34102429 C5.35874013,6.27713619 5.19415233,6.27713619 5.10711696,6.34102429 M7.68225994,5.21861472 C7.32242711,5.05941601 6.96265923,4.90015211 6.60282641,4.74088821 C6.64530487,4.34901948 6.68778333,3.95721594 6.73019683,3.56534721 C6.75663221,3.32179014 6.42115629,3.13077777 6.22539165,3.27459118 C5.90914146,3.50700043 5.59282632,3.73940968 5.27644623,3.97181894 C4.96013109,3.73940968 4.64388091,3.50700043 4.32756577,3.27459118 C4.13180112,3.13077777 3.79632521,3.32179014 3.82276058,3.56534721 C3.86517409,3.95721594 3.90765255,4.34901948 3.95013101,4.74088821 C3.59029818,4.90015211 3.23046535,5.05941601 2.87063253,5.21861472 C2.65096563,5.3158159 2.65096563,5.70292561 2.87063253,5.80012679 C3.23046535,5.95939069 3.59029818,6.1185894 3.95013101,6.2778533 C3.90765255,6.66972203 3.86517409,7.06159076 3.82276058,7.4533943 C3.79632521,7.69701656 4.13180112,7.88796374 4.32756577,7.74415033 C4.64388091,7.51174108 4.96013109,7.27933183 5.27644623,7.04692257 C5.59282632,7.27933183 5.90914146,7.51174108 6.22539165,7.74415033 C6.42115629,7.88796374 6.75663221,7.69701656 6.73019683,7.4533943 C6.68778333,7.06159076 6.64530487,6.66972203 6.60282641,6.2778533 C6.96265923,6.1185894 7.32242711,5.95939069 7.68225994,5.80012679 C7.90199179,5.70292561 7.90199179,5.3158159 7.68225994,5.21861472" id="Fill-1" fill="#000000"></path>
                        <path d="M5.68235294,9.88083446 L5.68235294,1.13791554 C5.68235294,0.95469171 5.56120714,0.80625 5.41179055,0.80625 C5.26232227,0.80625 5.14117647,0.95469171 5.14117647,1.13791554 L5.14117647,9.88083446 C5.14117647,10.0639949 5.26232227,10.2125 5.41179055,10.2125 C5.56120714,10.2125 5.68235294,10.0639949 5.68235294,9.88083446" id="Fill-3" fill="#000000"></path>
                        <path d="M6.66863109,0.100189837 C6.54059401,-0.0333966124 6.33294092,-0.0333966124 6.20490384,0.100189837 L5.2764471,1.06882231 L4.34805299,0.100189837 C4.22001591,-0.0333966124 4.01236282,-0.0333966124 3.8842631,0.100189837 C3.75622602,0.233841642 3.75622602,0.450429458 3.8842631,0.584081263 L5.03183614,1.7813923 C5.09911198,1.85158401 5.18831199,1.88452313 5.2764471,1.88099394 C5.36458221,1.88452313 5.45378221,1.85158401 5.52112069,1.7813923 L6.66863109,0.584081263 C6.79673081,0.450429458 6.79673081,0.233841642 6.66863109,0.100189837" id="Fill-5" fill="#000000"></path>
                        <path d="M6.66863109,1.71268984 C6.54059401,1.57910339 6.33294092,1.57910339 6.20490384,1.71268984 L5.2764471,2.68132231 L4.34805299,1.71268984 C4.22001591,1.57910339 4.01236282,1.57910339 3.8842631,1.71268984 C3.75622602,1.84634164 3.75622602,2.06292946 3.8842631,2.19658126 L5.03183614,3.3938923 C5.09911198,3.46408401 5.18831199,3.49702313 5.2764471,3.49349394 C5.36458221,3.49702313 5.45378221,3.46408401 5.52112069,3.3938923 L6.66863109,2.19658126 C6.79673081,2.06292946 6.79673081,1.84634164 6.66863109,1.71268984" id="Fill-7" fill="#000000"></path>
                        <path d="M3.8842631,10.6497607 C4.01230018,10.7834131 4.21995327,10.7834131 4.34805299,10.6497607 L5.2764471,9.68112431 L6.2048412,10.6497607 C6.33287828,10.7834131 6.54059401,10.7834131 6.66863109,10.6497607 C6.79673081,10.5161737 6.79673081,10.2995197 6.66863109,10.1659327 L5.52105805,8.96855141 C5.45378221,8.89842477 5.36451957,8.86542015 5.2764471,8.86901472 C5.18831199,8.86542015 5.09911198,8.89842477 5.03183614,8.96855141 L3.8842631,10.1659327 C3.75622602,10.2995197 3.75622602,10.5161737 3.8842631,10.6497607" id="Fill-9" fill="#000000"></path>
                        <path d="M3.8842631,9.30601028 C4.01230018,9.43966324 4.21995327,9.43966324 4.34805299,9.30601028 L5.2764471,8.33743475 L6.2048412,9.30601028 C6.33287828,9.43966324 6.54059401,9.43966324 6.66863109,9.30601028 C6.79673081,9.17242267 6.79673081,8.95576762 6.66863109,8.82218001 L5.52105805,7.62479322 C5.45378221,7.55466626 5.36451957,7.52172685 5.2764471,7.52525607 C5.18831199,7.52172685 5.09911198,7.55466626 5.03183614,7.62479322 L3.8842631,8.82218001 C3.75622602,8.95576762 3.75622602,9.17242267 3.8842631,9.30601028" id="Fill-11" fill="#000000"></path>
                        <path d="M9.57219575,7.19906946 L1.8597936,2.99901044 C1.69820029,2.91099054 1.4915622,2.96321812 1.39824594,3.11563986 C1.30499421,3.2680616 1.3602999,3.46297151 1.52189321,3.55093054 L9.2343599,7.75098956 C9.39595321,7.83900946 9.6025913,7.78678188 9.69584303,7.63436014 C9.7891593,7.4819384 9.73378907,7.28702849 9.57219575,7.19906946" id="Fill-13" fill="#000000"></path>
                        <path d="M1.52829763,1.62386213 C1.33777692,1.67110007 1.22474692,1.85241041 1.27577072,2.02879487 L1.64582974,3.30737696 L0.264776318,3.64997835 C0.0742556126,3.6972163 -0.038774394,3.87852664 0.012249411,4.05484795 C0.0632732161,4.23123241 0.259114585,4.33593897 0.449635291,4.28863787 L2.15668171,3.8652015 C2.25675112,3.84038263 2.3351286,3.77836704 2.37987675,3.69974239 C2.43110519,3.62452796 2.44993216,3.5306836 2.4231242,3.43803913 L1.96568351,1.85765205 C1.9146597,1.68126759 1.71881833,1.57656103 1.52829763,1.62386213" id="Fill-15" fill="#000000"></path>
                        <path d="M2.88123881,2.16134045 C2.6907181,2.20864119 2.57768809,2.38988703 2.6287119,2.56627018 L2.99877091,3.84484278 L1.61771749,4.18744162 C1.42719679,4.23467922 1.31416678,4.41598821 1.36519059,4.59237136 C1.41621439,4.76875451 1.61205576,4.87339715 1.80257647,4.82615955 L3.50962289,4.40266317 C3.6096923,4.37790764 3.68806978,4.31589251 3.73281793,4.23720529 C3.78404637,4.16205458 3.80287334,4.06814776 3.77606538,3.97556713 L3.31862468,2.39512864 C3.26760088,2.21874549 3.07175951,2.11410285 2.88123881,2.16134045" id="Fill-17" fill="#000000"></path>
                        <g id="Group-21" transform="translate(8.388235, 6.718750)">
                            <mask id="mask-8" fill="white">
                                <use xlink:href="#path-7"></use>
                            </mask>
                            <g id="Clip-20"></g>
                            <path d="M0.895898633,2.652675 C1.07973043,2.605925 1.18879211,2.4264875 1.13955968,2.251925 L0.782427091,0.98655 L2.1149937,0.6474875 C2.2988255,0.6007375 2.407953,0.4213 2.35872057,0.2467375 C2.30948814,0.072175 2.12045666,-0.0313875 1.93669068,0.015425 L0.289576216,0.4344875 C0.192954277,0.4589875 0.11739434,0.520425 0.0742172337,0.5982375 C0.024787345,0.672675 0.00662136725,0.76555 0.0324881399,0.857175 L0.473868744,2.4213 C0.523101176,2.5958625 0.712066836,2.699425 0.895898633,2.652675" id="Fill-19" fill="#000000" mask="url(#mask-8)"></path>
                        </g>
                        <path d="M7.94226951,8.58863334 C8.13279053,8.54139509 8.24582073,8.36014675 8.19479684,8.18376116 L7.82466899,6.90517092 L9.20572475,6.56256735 C9.39624578,6.51526595 9.5094124,6.3340176 9.4583203,6.15763202 C9.40729641,5.98124644 9.21138649,5.87660236 9.02093368,5.9238406 L7.31388436,6.34727968 C7.21374656,6.3720987 7.13543716,6.43411469 7.09068894,6.51280299 C7.03946041,6.58795475 7.02063341,6.68186286 7.04750963,6.77444477 L7.50488288,8.35490507 C7.55590677,8.53129065 7.75174848,8.63593473 7.94226951,8.58863334" id="Fill-22" fill="#000000"></path>
                        <path d="M9.23433079,2.99901044 L1.52192204,7.19906946 C1.36032859,7.28702849 1.30495831,7.4819384 1.39827465,7.63436014 C1.491591,7.78678188 1.69816473,7.83900946 1.85975818,7.75098956 L9.57216693,3.55093054 C9.73376038,3.46297151 9.78919519,3.2680616 9.69581432,3.11563986 C9.6025625,2.96321812 9.39592424,2.91099054 9.23433079,2.99901044" id="Fill-24" fill="#000000"></path>
                        <g id="Group-28" transform="translate(0.000000, 6.718750)" fill="#000000">
                            <path d="M0.0121426471,0.24673125 C-0.0384573529,0.42129375 0.0736338235,0.60073125 0.262572059,0.64748125 L1.63215441,0.98654375 L1.26516912,2.25191875 C1.21456912,2.42648125 1.32666029,2.60591875 1.51559853,2.65266875 C1.70453676,2.69941875 1.89875147,2.59585625 1.94935147,2.42129375 L2.40299265,0.85723125 C2.42957794,0.76554375 2.41090735,0.67266875 2.36010441,0.59823125 C2.31572794,0.52041875 2.23800147,0.45898125 2.13876324,0.43448125 L0.445895588,0.01541875 C0.256957353,-0.03139375 0.0628102941,0.07216875 0.0121426471,0.24673125" id="Fill-26"></path>
                        </g>
                        <path d="M1.36519059,6.15763202 C1.31416678,6.3340176 1.42719679,6.51526595 1.61771749,6.56256735 L2.99877091,6.90517092 L2.6287119,8.18376116 C2.57768809,8.36014675 2.6907181,8.54139509 2.88123881,8.58863334 C3.07175951,8.63593473 3.26760088,8.53129065 3.31862468,8.35490507 L3.77606538,6.77450792 C3.80287334,6.68186286 3.78404637,6.58795475 3.73281793,6.51280299 C3.68806978,6.43411469 3.6096923,6.3720987 3.50962289,6.34727968 L1.80257647,5.9238406 C1.61205576,5.87660236 1.41628261,5.98124644 1.36519059,6.15763202" id="Fill-29" fill="#000000"></path>
                        <path d="M10.8112797,4.05484795 C10.8623046,3.87852664 10.7492722,3.6972163 10.5587474,3.64997835 L9.17766398,3.30737696 L9.54779923,2.02879487 C9.59882414,1.85241041 9.48572347,1.67110007 9.29519863,1.62386213 C9.1046738,1.57656103 8.90882818,1.68126759 8.85780327,1.85765205 L8.40042087,3.43797598 C8.37361233,3.5306836 8.39237148,3.62452796 8.44360104,3.69974239 C8.48835016,3.77836704 8.56672934,3.84038263 8.66680092,3.8652015 L10.3738844,4.28863787 C10.5644092,4.33593897 10.7602548,4.23123241 10.8112797,4.05484795" id="Fill-31" fill="#000000"></path>
                        <path d="M9.45831535,4.59237136 C9.50940799,4.41598821 9.3963084,4.23467922 9.20578538,4.18744162 L7.82478345,3.84484278 L8.19484695,2.56627018 C8.24587137,2.38988703 8.13277178,2.20864119 7.94224877,2.16134045 C7.75172576,2.11410285 7.55588202,2.21874549 7.50485759,2.39512864 L7.04747958,3.97550398 C7.02067129,4.06814776 7.03943027,4.16205458 7.09065934,4.23720529 C7.13540803,4.31589251 7.21378645,4.37790764 7.31385708,4.40266317 L9.02092417,4.82615955 C9.21144718,4.87339715 9.40729093,4.76875451 9.45831535,4.59237136" id="Fill-33" fill="#000000"></path>
                    </g>
                </g>
            </g>
        </g>
    </g>
</svg>
